<svg
	xmlns="http://www.w3.org/2000/svg" version="1.1"
	xmlns:xlink="http://www.w3.org/1999/xlink"
	xmlns:berti="http://www.albertidraw.com/alberti"
  fill="none">
<title>3pp cube.svg</title>
<g xmlns="http://www.w3.org/2000/svg" id="workspace"><g title="Scratch 1" stroke="#a4acc2"><path berti:type="carc" d="M-636.531396218812,235.93686514334502 A1942.373,1942.373, 0.046076692252650306,0,0, -608.7349167968537, 284.9273641476699" berti:cx="1066.576"  berti:cy="-698" berti:r="1942.373" berti:sa="2.64" berti:da="-0.029"/><path berti:type="carc" d="M-811.214695117787,-201.2958864091636 A1942.373,1942.373, 0.05031784233499652,0,0, -794.3615292139541, -141.4711296868204" berti:cx="1066.576"  berti:cy="-698" berti:r="1942.373" berti:sa="2.883" berti:da="-0.032"/><path berti:type="carc" d="M-798.4550371673159,48.56709273658856 A268.661,268.661, 0.07009242276009227,0,0, -852.248882821234, 109.60379014783263" berti:cx="-626.122"  berti:cy="254.674" berti:r="268.661" berti:sa="4.016" berti:da="-0.304"/><path berti:type="carc" d="M-858.2330772095039,89.184971312973 A268.661,268.661, 0.030979594222899347,0,0, -779.3920706997941, 93.66034357432693" berti:cx="-803.752"  berti:cy="-173.894" berti:r="268.661" berti:sa="1.775" berti:da="-0.295"/><path berti:type="carc" d="M-858.3971708864277,879.2161845657624 A1768.371,1768.371, 0.07086036763096977,0,0, -1111.5035450653293, 1115.1931517865798" berti:cx="215.157"  berti:cy="2284.427" berti:r="1768.371" berti:sa="4.06" berti:da="-0.196"/><path berti:type="carc" d="M-1129.143243338332,1067.0599724744577 A1768.371,1768.371, 0.028483773392547453,0,0, -758.8227707373348, 1050.8309182955118" berti:cx="-1020.98"  berti:cy="-698" berti:r="1768.371" berti:sa="1.632" berti:da="-0.21"/><path berti:type="carc" d="M103.13681977179942,519.6076118294593 A1768.371,1768.371, 0.08114035692521639,0,1, 464.74168265449055, 533.7575623775638" berti:cx="215.157"  berti:cy="2284.427" berti:r="1768.371" berti:sa="4.649" berti:da="0.205"/><path berti:type="carc" d="M156.70593531112513,621.1633073320986 A1768.371,1768.371, 0.014695672301792253,0,0, 374.93443602567095, 387.6145176517" berti:cx="-1020.98"  berti:cy="-698" berti:r="1768.371" berti:sa="0.842" berti:da="-0.181"/><line x1="-332.014" y1="763.828" x2="-477.4" y2="824.087"/><path berti:type="carc" d="M-605.3755071528763,-20.20347890746696 A125.201,125.201, 0.10084512418023235,0,1, -681.4235245619051, 161.02224015602215" berti:cx="-714.937"  berti:cy="40.39" berti:r="125.201" berti:sa="5.778" berti:da="1.805"/><path berti:type="carc" d="M325.318939508344,-404.60385259045495 A125.201,125.201, 0.10101965710543179,0,1, 251.31606071074526, -225.24318865449314" berti:cx="215.157"  berti:cy="-345.109" berti:r="125.201" berti:sa="5.788" berti:da="1.773"/><path berti:type="carc" d="M241.88686532065873,-239.9389441283298 A177.062,177.062, 0.03659955441432109,0,0, 297.34185322386077, -219.17918050577345" berti:cx="330.817"  berti:cy="-393.048" berti:r="177.062" berti:sa="2.097" berti:da="-0.336"/><line x1="1752.717" y1="3364.56" x2="-672.688" y2="-2487.212"/><path berti:type="carc" d="M562.4432612882002,597.0986654214115 A1393.422,1393.422, 0.007173303225696695,0,0, 608.1861772855415, 477.39106157057944" berti:cx="-714.937"  berti:cy="40.39" berti:r="1393.422" berti:sa="0.411" berti:da="-0.092"/><path berti:type="carc" d="M-197.29768153824762,-1253.315687575985 A1393.422,1393.422, 0.0888896188040712,0,1, -88.0891372635507, -1204.0723847536515" berti:cx="-714.937"  berti:cy="40.39" berti:r="1393.422" berti:sa="5.093" berti:da="0.086"/><path berti:type="carc" d="M583.8809630859437,544.8246057606746 A963.296,963.296, 0.020559978588493198,1,1, -153.2044212449541, -1235.192730305412" berti:cx="215.157"  berti:cy="-345.109" berti:r="963.296" berti:sa="1.178" berti:da="3.142"/><path berti:type="carc" d="M68.20971093258501,-610.0567592578159 A302.97,302.97, 0.0734085483388815,0,1, 129.57096505201653, -635.7390939714994" berti:cx="215.157"  berti:cy="-345.109" berti:r="302.97" berti:sa="4.206" berti:da="0.22"/><path berti:type="carc" d="M303.47326551720784,-55.29689165203246 A302.97,302.97, 0.0222529479629277,0,0, 361.41687819909276, -79.78114822189025" berti:cx="215.157"  berti:cy="-345.109" berti:r="302.97" berti:sa="1.275" berti:da="-0.208"/><path berti:type="carc" d="M1232.8714371385338,1032.6136570049086 A1738.585,1738.585, 0.025743606466916362,0,0, 1606.5344590055997, 954.6108630809911" berti:cx="1066.576"  berti:cy="-698" berti:r="1738.585" berti:sa="1.475" berti:da="-0.22"/><path berti:type="carc" d="M57.52410552127867,717.8008604581025 A1738.585,1738.585, 0.03822271061867581,0,1, -234.07035844413736, 455.68836888087094" berti:cx="1066.576"  berti:cy="-698" berti:r="1738.585" berti:sa="2.19" berti:da="0.226"/><path berti:type="carc" d="M1262.6284240358532,896.8098272706834 A1738.585,1738.585, 0.09353219461437612,0,1, 1523.168690560195, 1139.0959476038552" berti:cx="215.157"  berti:cy="2284.427" berti:r="1738.585" berti:sa="5.359" berti:da="0.205"/><path berti:type="carc" d="M4.629859309264646,558.6355510532906 A1738.585,1738.585, 0.08012806595905966,0,0, -267.6311358173441, 614.2194026819261" berti:cx="215.157"  berti:cy="2284.427" berti:r="1738.585" berti:sa="4.591" berti:da="-0.16"/><line x1="679.367" y1="804.205" x2="600.124" y2="781.582"/><path berti:type="carc" d="M-154.09432064621726,-1234.8239239037325 A963.296,963.296, 0.07538077039363508,1,1, 584.0458678407422, 544.7562632838162" berti:cx="215.157"  berti:cy="-345.109" berti:r="963.296" berti:sa="4.319" berti:da="3.142"/><path berti:type="carc" d="M-8.508654081482064,-947.9184998344452 A1103.751,1103.751, 0.05881759579220891,0,1, 128.15300817616753, -1279.0581368653288" berti:cx="1066.576"  berti:cy="-698" berti:r="1103.751" berti:sa="3.37" berti:da="0.326"/><path berti:type="carc" d="M-13.249344278254512,-469.4316385512882 A1103.751,1103.751, 0.051190506960993684,0,0, 103.06396798015498, -159.56631406087797" berti:cx="1066.576"  berti:cy="-698" berti:r="1103.751" berti:sa="2.933" berti:da="-0.301"/><path berti:type="carc" d="M42.13718555479318,-994.7290342704191 A1103.751,1103.751, 0.10491174133737914,0,0, -11.447642486735617, -1144.2182079820482" berti:cx="-1020.98"  berti:cy="-698" berti:r="1103.751" berti:sa="6.011" berti:da="-0.144"/><path berti:type="carc" d="M52.433676760246044,-440.99932189768464 A1103.751,1103.751, 0.004101523742186674,0,1, 5.663931066150326, -292.6994833385458" berti:cx="-1020.98"  berti:cy="-698" berti:r="1103.751" berti:sa="0.235" berti:da="0.141"/><line x1="22.798" y1="-736.879" x2="22.798" y2="-666.879"/></g><g title="Scratch 2" stroke="#87c493"><line x1="1066.576" y1="-698" x2="2066.761" y2="183.484"/><line x1="2066.761" y1="183.484" x2="215.157" y2="2284.426"/><path berti:type="carc" d="M1936.9114779281467,222.71489010009537 A88.718,88.718, 0.05637413483941684,0,1, 1959.3745907485197, 171.15974262584055" berti:cx="2025.283"  berti:cy="230.548" berti:r="88.718" berti:sa="3.23" berti:da="0.645"/><path berti:type="carc" d="M1940.6629363909608,182.31009041600512 A88.718,88.718, 0.0466002910282486,0,0, 1955.0007061859123, 202.71145015746882" berti:cx="2019.697"  berti:cy="142.005" berti:r="88.718" berti:sa="2.67" berti:da="-0.282"/><line x1="-1020.98" y1="-698" x2="-2002.173" y2="573.916"/><line x1="-2002.173" y1="573.916" x2="215.158" y2="2284.426"/><line x1="-1020.98" y1="-698" x2="215.157" y2="-1723.9"/><line x1="215.157" y1="-1723.9" x2="1066.576" y2="-698"/><path berti:type="carc" d="M-1981.9034272227245,533.4743063111011 A45.237,45.237, 0.09035569537574643,0,1, -1972.107703058314, 607.7163563414389" berti:cx="-2002.173"  berti:cy="573.916" berti:r="45.237" berti:sa="5.177" berti:da="1.95"/><path berti:type="carc" d="M2027.004083344783,134.95754466819008 A62.733,62.733, 0.0702669556852917,0,0, 2028.3378175435525, 233.073195788181" berti:cx="2066.761"  berti:cy="183.484" berti:r="62.733" berti:sa="4.026" berti:da="-1.796"/><path berti:type="carc" d="M-1903.3249897645064,580.6908371574094 A82.982,82.982, 0.009407324668249437,0,0, -1891.5749778004097, 536.521436860544" berti:cx="-1974.542"  berti:cy="538.098" berti:r="82.982" berti:sa="0.539" berti:da="-0.558"/><path berti:type="carc" d="M-1901.683849987075,549.550320490576 A82.982,82.982, 0.0978431578668021,0,1, -1887.9365644419072, 574.4073373524792" berti:cx="-1966.355"  berti:cy="601.547" berti:r="82.982" berti:sa="5.606" berti:da="0.344"/><path berti:type="carc" d="M175.34774923562554,-1701.6013633919213 A45.629,45.629, 0.0459196126199708,0,0, 248.51211221493193, -1692.764134344308" berti:cx="215.157"  berti:cy="-1723.9" berti:r="45.629" berti:sa="2.631" berti:da="-1.88"/><path berti:type="carc" d="M190.87885063097124,-1652.5872657672785 A64.529,64.529, 0.044436082755775624,0,0, 222.46113867356644, -1628.0657882391233" berti:cx="244.297"  berti:cy="-1688.788" berti:r="64.529" berti:sa="2.546" berti:da="-0.63"/><path berti:type="carc" d="M192.09220434058662,-1631.3645467049669 A64.529,64.529, 0.024137903555081577,0,0, 214.8558507906541, -1640.424880809285" berti:cx="180.045"  berti:cy="-1694.759" berti:r="64.529" berti:sa="1.383" berti:da="-0.382"/><line x1="215.157" y1="-1723.9" x2="117.035" y2="-668.16"/><line x1="2066.761" y1="183.484" x2="764.191" y2="265.654"/><line x1="-2002.173" y1="573.916" x2="-522.296" y2="382.964"/></g><g title="Diagonal VP's" stroke="#000000"><line x1="803.747" y1="276.982" x2="778.387" y2="248.806"/><line x1="-588.253" y1="405.982" x2="-555.772" y2="375.43"/><line x1="101.747" y1="-713.018" x2="143.399" y2="-678.384"/></g><g title="Circles of Thales" stroke="#78c0ff"><path berti:type="carc" d="M1065.8735577829339,-698.2007917923336 A1550.789,1550.789, 0.08709192967451705,1,1, 215.2509554406335, 2284.453542758186" berti:cx="640.866"  berti:cy="793.213" berti:r="1550.789" berti:sa="4.99" berti:da="3.142"/><path berti:type="carc" d="M-1021.6782798573447,-697.7108310482206 A1614.226,1614.226, 0.07538077039363508,1,0, 216.46155097473485, 2283.8846551370216" berti:cx="-402.912"  berti:cy="793.213" berti:r="1614.226" berti:sa="4.319" berti:da="-3.142"/><path berti:type="carc" d="M1066.576,-698.0000000000001 A1043.778,1043.778, 0,1,0, -1020.9799134023865, -697.5748207904056" berti:cx="22.798"  berti:cy="-698" berti:r="1043.778" berti:sa="0" berti:da="-3.142"/></g><g title="Grid" stroke="#ccd3ff"><line x1="1066.576" y1="-698" x2="253.747" y2="-69.018"/><line x1="-1020.98" y1="-698" x2="305.747" y2="-73.018"/><line x1="1066.576" y1="-698" x2="174.747" y2="-115.018"/><line x1="119.808" y1="-698" x2="276.637" y2="-86.731"/><line x1="-1020.98" y1="-698" x2="354.002" y2="-127.224"/></g><g title="Scaffolding" stroke="#a8b4ff"><line x1="215.158" y1="2284.426" x2="352.096" y2="-417.943"/><line x1="215.158" y1="2284.425" x2="285.19" y2="-416.619"/><line x1="1066.576" y1="-698" x2="267.845" y2="-177.853"/><line x1="791.974" y1="263.901" x2="266.809" y2="-196.087"/><line x1="1066.576" y1="-698" x2="269.948" y2="-81.555"/><line x1="-1020.98" y1="-698" x2="293.113" y2="-179.752"/><line x1="-1020.98" y1="-698" x2="289.684" y2="-80.585"/><line x1="215.157" y1="2284.427" x2="191.304" y2="-228.369"/><line x1="1066.576" y1="-698" x2="184.123" y2="-215.905"/><line x1="342.39" y1="-226.398" x2="-1020.98" y2="-698"/></g><g title="Vanishing Lines" stroke="#ffa929"><line x1="227" y1="2313" x2="-1033" y2="-727"/><line x1="-1044" y1="-698" x2="1086" y2="-698"/><line x1="1072" y1="-717" x2="207" y2="2313"/></g><g title="Auxiliary VL's" stroke="#ffbc36"><line x1="-1020.98" y1="-698" x2="3695.238" y2="648.379"/><line x1="1066.576" y1="-698" x2="-3360.787" y2="1137.026"/><line x1="215.157" y1="2284.427" x2="215.157" y2="-3562"/></g><g title="Circle of View" stroke="#ff334e"><path berti:type="carc" d="M99.02232009249032,-624.9367274016645 A302.97,302.97, 0.07538077039363508,1,0, 331.4056570894134, -65.32860285804867" berti:cx="215.157"  berti:cy="-345.109" berti:r="302.97" berti:sa="4.319" berti:da="-3.142"/><path berti:type="carc" d="M99.02232009249032,-624.9367274016645 A302.97,302.97, 0.07538077039363508,1,1, 331.1776834552512, -65.23398877074351" berti:cx="215.157"  berti:cy="-345.109" berti:r="302.97" berti:sa="4.319" berti:da="3.142"/></g><g title="Cleanup" stroke="#000000"><line x1="276.637" y1="-86.731" x2="279.191" y2="-185.242"/><line x1="276.637" y1="-86.731" x2="337.707" y2="-133.988"/><line x1="337.707" y1="-133.988" x2="342.39" y2="-226.398"/><line x1="342.39" y1="-226.398" x2="279.191" y2="-185.242"/><line x1="342.39" y1="-226.398" x2="257.244" y2="-255.851"/><line x1="257.244" y1="-255.851" x2="191.384" y2="-219.871"/><line x1="191.384" y1="-219.871" x2="279.191" y2="-185.242"/><line x1="191.384" y1="-219.871" x2="192.271" y2="-126.474"/><line x1="192.271" y1="-126.474" x2="276.637" y2="-86.731"/></g></g>
</svg>
