<svg
	xmlns="http://www.w3.org/2000/svg" version="1.1"
	xmlns:xlink="http://www.w3.org/1999/xlink"
	xmlns:berti="http://www.albertidraw.com/alberti"
  fill="none">
<title>gear.svg</title>
<g xmlns="http://www.w3.org/2000/svg" id="workspace"><g title="Housing" stroke="#7788ff"><line x1="-424" y1="-410" x2="622" y2="-410"/><line x1="602" y1="-436" x2="298" y2="476"/><path d="M450.10215783202636,5.859878379152889 A278.919,278.919, 0.01174606586592184,0,0, 466.67154707389034, -17.251621717025188" berti:cx="232"  berti:cy="-168" berti:r="278.919" berti:sa="0.673" berti:da="-0.102"/><path d="M510.17615029958813,-147.65699222088972 A278.919,278.919, 0.0012740903539558606,0,0, 510.7176447135023, -178.59637137693397" berti:cx="232"  berti:cy="-168" berti:r="278.919" berti:sa="0.073" berti:da="-0.111"/><path d="M517.1958975827063,-80.28017382299402 A95.562,95.562, 0.09382890058721516,0,1, 541.3968574280734, -52.24824796405436" berti:cx="458.333"  berti:cy="-4.999" berti:r="95.562" berti:sa="5.376" berti:da="0.39"/><path d="M513.6184542803608,-67.07861862608803 A95.562,95.562, 0.02691297706575256,0,0, 550.3385147994273, -75.57172122878077" berti:cx="510.867"  berti:cy="-162.601" berti:r="95.562" berti:sa="1.542" berti:da="-0.397"/><line x1="529.424" y1="-68.859" x2="-80.9" y2="-272.3"/><path d="M592.7109852508064,-366.2104175213809 A43.794,43.794, 0.027663468644110123,0,1, 552.6696812957542, -426.2606564429896" berti:cx="593.333"  berti:cy="-410" berti:r="43.794" berti:sa="1.585" berti:da="1.937"/><path d="M531.6898657605565,-386.849556855762 A51.213,51.213, 0.06124360345248102,0,0, 532.5081796368181, -348.0591546324729" berti:cx="579.485"  berti:cy="-368.454" berti:r="51.213" berti:sa="3.509" berti:da="-0.777"/><path d="M511.70674622864186,-375.4831015577584 A51.213,51.213, 0.0419228086329038,0,0, 551.0657334976975, -358.8097323088265" berti:cx="549.54"  berti:cy="-410" berti:r="51.213" berti:sa="2.402" berti:da="-0.861"/><line x1="593.333" y1="-410" x2="-586.035" y2="440.041"/><line x1="249.488" y1="203.856" x2="249.488" y2="-450.144"/><path d="M235.31900126616563,85.25263006770516 A247.829,247.829, 0.02841396022246768,0,0, 268.74874361418756, 84.90841435180013" berti:cx="249.488"  berti:cy="-162.171" berti:r="247.829" berti:sa="1.628" berti:da="-0.135"/><line x1="502.667" y1="-354.144" x2="512" y2="-343.478"/><path d="M555.7701757526393,-302.8750195767491 A66.109,66.109, 0.013229595730117017,0,0, 561.6806835580076, -310.0729332549036" berti:cx="507.761"  berti:cy="-348.323" berti:r="66.109" berti:sa="0.758" berti:da="-0.141"/><path d="M573.7840438789125,-344.952902380761 A66.109,66.109, 0.0008901179185171079,0,0, 573.512804654258, -355.18594876188706" berti:cx="507.761"  berti:cy="-348.323" berti:r="66.109" berti:sa="0.051" berti:da="-0.155"/><path d="M574.3247960416288,-328.9334707871793 A27.524,27.524, 0.09274679645097868,0,1, 583.1582925793126, -318.95653383365647" berti:cx="558.747"  berti:cy="-306.242" berti:r="27.524" berti:sa="5.314" berti:da="0.489"/><path d="M573.3520296148922,-323.87461325824785 A27.524,27.524, 0.027698375229150012,0,0, 586.2582438164383, -326.8529361088984" berti:cx="573.798"  berti:cy="-351.395" berti:r="27.524" berti:sa="1.587" berti:da="-0.486"/><line x1="507.761" y1="-348.323" x2="507.761" y2="-425.917"/><line x1="579.392" y1="-324.446" x2="507.761" y2="-348.323"/><path d="M232.07751438106015,-350.0821589196147 A188.716,188.716, 0.08063421144213803,0,1, 269.3814600930823, -349.83553820987316" berti:cx="249.488"  berti:cy="-162.171" berti:r="188.716" berti:sa="4.62" berti:da="0.198"/><path d="M234.18040370010678,25.923141725678164 A188.716,188.716, 0.028832839242946322,0,0, 268.2899182947064, 25.606039396298883" berti:cx="249.488"  berti:cy="-162.171" berti:r="188.716" berti:sa="1.652" berti:da="-0.181"/></g><g title="Gear" stroke="#7788ff"><line x1="249.488" y1="50" x2="249.488" y2="-371.333"/><line x1="36.667" y1="-162.17" x2="462" y2="-162.17"/><path d="M262.3160058546381,-212.87857261852864 A27.336,27.336, 0.07204719152232593,0,1, 282.87097874797735, -216.8613160437385" berti:cx="277.397"  berti:cy="-190.079" berti:r="27.336" berti:sa="4.128" berti:da="0.786"/><path d="M275.966155082331,-208.43342414307702 A27.336,27.336, 0.10527826048029795,0,0, 267.21537052650945, -222.4475854929124" berti:cx="249.488"  berti:cy="-201.639" berti:r="27.336" berti:sa="6.032" berti:da="-0.614"/><path d="M274.518789403675,-237.40869315288256 A40.024,40.024, 0.08662069077647858,0,0, 255.45326971386334, -237.60147156590747" berti:cx="264.593"  berti:cy="-198.635" berti:r="40.024" berti:sa="4.963" berti:da="-0.481"/><path d="M255.9676987046315,-241.13500081903481 A40.024,40.024, 0.08508480103472357,0,1, 272.0413460577359, -234.70359069155415" berti:cx="249.488"  berti:cy="-201.639" berti:r="40.024" berti:sa="4.875" berti:da="0.436"/><path d="M249.4726473335838,-201.6389970140569 A39.469,39.469, 0.08223991435397279,1,1, 249.48727511133896, -122.70100000665664" berti:cx="249.488"  berti:cy="-162.17" berti:r="39.469" berti:sa="4.712" berti:da="3.142"/><path d="M249.47996122232337,-122.7010008186418 A39.469,39.469, 0.027419122548830915,1,1, 249.51211633169606, -201.6389926322239" berti:cx="249.488"  berti:cy="-162.17" berti:r="39.469" berti:sa="1.571" berti:da="3.142"/><path d="M272.29511303724735,-197.90109008627442 A7.737,7.737, 0.0016580627893946131,0,1, 269.6701626098491, -192.79688482186668" berti:cx="264.593"  berti:cy="-198.635" berti:r="7.737" berti:sa="0.095" berti:da="0.76"/><path d="M284.4003556113933,-186.79050806898272 A7.737,7.737, 0.007661995416255106,0,1, 279.8879849849591, -182.753963289873" berti:cx="277.397"  berti:cy="-190.079" berti:r="7.737" berti:sa="0.439" berti:da="0.804"/><path d="M287.9247053623284,-178.77904154449936 A7.737,7.737, 0.013229595730117017,0,1, 283.9626878565754, -176.5404505065547" berti:cx="282.306"  berti:cy="-184.098" berti:r="7.737" berti:sa="0.758" berti:da="0.597"/><path d="M291.17451375567134,-171.56462498172223 A7.737,7.737, 0.014486232791552934,0,1, 285.08670059029737, -169.58565204138438" berti:cx="285.953"  berti:cy="-177.274" berti:r="7.737" berti:sa="0.83" berti:da="0.853"/><path d="M292.0750383684782,-155.08910982060178 A7.737,7.737, 0.020176006153054447,0,1, 286.2589631618645, -154.91867141690133" berti:cx="288.957"  berti:cy="-162.17" berti:r="7.737" berti:sa="1.156" berti:da="0.771"/><path d="M287.7566565163735,-146.74565528717852 A7.737,7.737, 0.02841396022246768,0,1, 284.1668239676224, -147.86676401724733" berti:cx="288.199"  berti:cy="-154.47" berti:r="7.737" berti:sa="1.628" berti:da="0.491"/><path d="M285.2868679089546,-139.35772930954812 A7.737,7.737, 0.02892010570554604,0,1, 280.6160683750743, -141.4643636470342" berti:cx="285.953"  berti:cy="-147.066" berti:r="7.737" berti:sa="1.657" berti:da="0.675"/><path d="M281.0870776796814,-132.602620599929 A7.737,7.737, 0.03017674276698196,0,1, 275.7003015113949, -136.21485942677762" berti:cx="282.306"  berti:cy="-140.243" berti:r="7.737" berti:sa="1.729" berti:da="0.865"/><path d="M274.79345575917444,-126.97621065456433 A7.737,7.737, 0.03340560188317147,0,1, 270.50452552871866, -130.7470370325229" berti:cx="277.397"  berti:cy="-134.262" berti:r="7.737" berti:sa="1.914" berti:da="0.756"/><path d="M265.97360697503524,-123.85377031196053 A7.737,7.737, 0.041032690714386685,0,1, 263.7204774547913, -128.5529364049121" berti:cx="271.416"  berti:cy="-129.353" berti:r="7.737" berti:sa="2.351" berti:da="0.687"/><path d="M258.2495783405854,-121.2763080636607 A7.737,7.737, 0.044191736660496424,0,1, 256.88986172510454, -124.98293035062989" berti:cx="264.593"  berti:cy="-125.706" berti:r="7.737" berti:sa="2.532" berti:da="0.516"/><path d="M241.90459938232277,-121.16698433130149 A7.737,7.737, 0.05134758659367318,0,1, 242.43104613123478, -125.87284033238112" berti:cx="249.488"  berti:cy="-122.701" berti:r="7.737" berti:sa="2.942" berti:da="0.622"/><path d="M234.05161343898877,-123.36257321413093 A7.737,7.737, 0.05461135229490257,0,1, 235.31377672681919, -127.69622497148153" berti:cx="241.788"  berti:cy="-123.46" berti:r="7.737" berti:sa="3.129" berti:da="0.592"/><path d="M226.6510624827922,-125.95669175287702 A7.737,7.737, 0.055396750458300024,0,1, 229.0966517746757, -131.35446153781368" berti:cx="234.384"  berti:cy="-125.706" berti:r="7.737" berti:sa="3.174" berti:da="0.786"/><path d="M220.3183522424938,-132.0742538398118 A7.737,7.737, 0.06110397711232147,0,1, 223.45521851722074, -135.91072273092323" berti:cx="227.561"  berti:cy="-129.353" berti:r="7.737" berti:sa="3.501" berti:da="0.652"/><path d="M215.1657164025898,-138.5884459931905 A7.737,7.737, 0.0651880475619882,0,1, 218.65001453522558, -141.42275095057846" berti:cx="221.58"  berti:cy="-134.262" berti:r="7.737" berti:sa="3.735" berti:da="0.589"/><path d="M210.5042501401922,-144.9155116550481 A7.737,7.737, 0.0661479786505851,0,1, 215.87250379323737, -147.93868533710844" berti:cx="216.671"  berti:cy="-140.243" berti:r="7.737" berti:sa="3.79" berti:da="0.819"/><path d="M208.04330444395202,-152.98662841073173 A7.737,7.737, 0.07004006288253244,0,1, 213.53898842519214, -154.78584170316452" berti:cx="213.024"  berti:cy="-147.066" berti:r="7.737" berti:sa="4.013" berti:da="0.766"/><path d="M207.88638009586725,-169.6069909980239 A7.737,7.737, 0.07737044574090862,0,1, 213.17209440789998, -169.23579576860848" berti:cx="210.02"  berti:cy="-162.17" berti:r="7.737" berti:sa="4.433" berti:da="0.699"/><path d="M210.05649928847828,-177.5732853850337 A7.737,7.737, 0.08061675814961808,0,1, 215.99274272606533, -175.58556010386982" berti:cx="210.778"  berti:cy="-169.87" berti:r="7.737" berti:sa="4.619" berti:da="0.833"/><path d="M214.44423603513334,-184.8795307904517 A7.737,7.737, 0.08546877347016231,0,1, 218.93567190634928, -182.2653228979581" berti:cx="213.024"  berti:cy="-177.274" berti:r="7.737" berti:sa="4.897" berti:da="0.685"/><path d="M219.78772617516282,-191.17946785271636 A7.737,7.737, 0.08948303074974927,0,1, 223.4749567432916, -187.78138725026523" berti:cx="216.671"  berti:cy="-184.098" berti:r="7.737" berti:sa="5.127" berti:da="0.66"/><path d="M225.2526713057827,-196.88874702024094 A7.737,7.737, 0.09087929415134474,0,1, 228.88643107669932, -192.62404104513908" berti:cx="221.58"  berti:cy="-190.079" berti:r="7.737" berti:sa="5.207" berti:da="0.741"/><path d="M232.66039623080164,-200.80670493162233 A7.737,7.737, 0.09480628496833199,0,1, 235.29648119128765, -194.83470375335577" berti:cx="227.561"  berti:cy="-194.988" berti:r="7.737" berti:sa="5.432" berti:da="0.871"/><path d="M240.40889864340895,-203.4890462849718 A7.737,7.737, 0.09782570457428218,0,1, 242.0931884989094, -197.9795751848739" berti:cx="234.384"  berti:cy="-198.635" berti:r="7.737" berti:sa="5.605" berti:da="0.763"/><line x1="208.679" y1="42.995" x2="290.109" y2="-366.385"/><line x1="169.434" y1="31.099" x2="329.108" y2="-354.389"/><line x1="134.747" y1="9.553" x2="366.179" y2="-336.811"/><path d="M278.88494333752874,-192.96907592495788 A7.737,7.737, 0.00460766922526503,0,1, 274.80775211794145, -188.03406682729553" berti:cx="271.416"  berti:cy="-194.988" berti:r="7.737" berti:sa="0.264" berti:da="0.853"/><line x1="101.761" y1="-14.443" x2="397.428" y2="-310.11"/><line x1="74.87" y1="-45.494" x2="425.543" y2="-279.806"/><line x1="59.232" y1="-83.363" x2="441.36" y2="-241.646"/><line x1="49.959" y1="-122.482" x2="452.559" y2="-202.564"/><line x1="41.775" y1="-203.487" x2="455.539" y2="-121.184"/><line x1="50.495" y1="-244.596" x2="448.64" y2="-79.679"/><line x1="68.526" y1="-283.086" x2="428.392" y2="-42.631"/><line x1="98.872" y1="-312.787" x2="400.205" y2="-11.453"/><line x1="130.952" y1="-339.573" x2="366.416" y2="12.824"/><line x1="170.491" y1="-352.887" x2="329.718" y2="31.52"/><line x1="209.207" y1="-364.681" x2="290.266" y2="42.832"/><path d="M262.70910426623516,-369.6987104746309 A22.993,22.993, 0.09293878266869804,0,1, 271.51309267829697, -357.4880106432597" berti:cx="249.488"  berti:cy="-350.887" berti:r="22.993" berti:sa="5.325" berti:da="0.667"/><path d="M265.9680371442359,-357.988813887427 A22.993,22.993, 0.06330309196983433,0,1, 276.2130647296151, -367.92088604756475" berti:cx="286.305"  berti:cy="-347.261" berti:r="22.993" berti:sa="3.627" berti:da="0.631"/><line x1="266.558" y1="-335.483" x2="269.235" y2="-362.665"/><path d="M254.1071403395993,-364.3020246560745 A14.188,14.188, 0.08803440747059398,0,1, 262.1170393826444, -357.35281072036724" berti:cx="249.488"  berti:cy="-350.887" berti:r="14.188" berti:sa="5.044" berti:da="0.766"/><path d="M256.21565053862565,-357.90000842950354 A14.188,14.188, 0.06517059426946827,0,1, 262.62616850570623, -363.11464912954506" berti:cx="267.986"  berti:cy="-349.978" berti:r="14.188" berti:sa="3.734" berti:da="0.591"/><line x1="258.21" y1="-339.696" x2="259.265" y2="-361.17"/><path d="M249.44956360769152,26.54499608576839 A188.716,188.716, 0.027419122548830915,1,1, 249.60330917054785, -350.8869647719164" berti:cx="249.488"  berti:cy="-162.171" berti:r="188.716" berti:sa="1.571" berti:da="3.142"/><path d="M249.41459317957396,-350.8869857230932 A188.716,188.716, 0.08223991435397279,1,1, 249.4845340371289, 26.54499996817205" berti:cx="249.488"  berti:cy="-162.171" berti:r="188.716" berti:sa="4.712" berti:da="3.142"/><path d="M240.82727697934973,-347.6014185051077 A9.263,9.263, 0.048502699912922415,0,1, 241.13273724091889, -354.88609405074607" berti:cx="249.488"  berti:cy="-350.887" berti:r="9.263" berti:sa="2.779" berti:da="0.809"/><path d="M221.01612120794712,-351.2832891824292 A9.263,9.263, 0.10182250856134917,0,1, 221.68934839174716, -345.1418971280622" berti:cx="212.672"  berti:cy="-347.261" berti:r="9.263" berti:sa="5.834" berti:da="0.68"/><path d="M205.2676710010997,-341.695114529022 A9.263,9.263, 0.043580871422298405,0,1, 203.540043978895, -348.81359403212963" berti:cx="212.672"  berti:cy="-347.261" berti:r="9.263" berti:sa="2.497" berti:da="0.813"/><path d="M171.13984086103184,-329.5776268871175 A9.263,9.263, 0.04003785304074992,0,1, 168.01100499561753, -336.7943609899015" berti:cx="177.27"  berti:cy="-336.522" berti:r="9.263" berti:sa="2.294" berti:da="0.877"/><path d="M153.70214238604348,-321.0156428095721 A9.263,9.263, 0.10599384547361562,0,0, 148.65214815722052, -327.4334431052164" berti:cx="144.643"  berti:cy="-319.083" berti:r="9.263" berti:sa="6.073" berti:da="-0.913"/><path d="M139.41115977871488,-311.4389816262032 A9.263,9.263, 0.037891098060796886,0,1, 135.52569005972578, -317.44659282176565" berti:cx="144.643"  berti:cy="-319.083" berti:r="9.263" berti:sa="2.171" berti:da="0.793"/><path d="M183.7290056338299,-343.16160956850274 A9.263,9.263, 0.09571385617936903,0,1, 186.51857532630748, -336.00525689785286" berti:cx="177.27"  berti:cy="-336.522" berti:r="9.263" berti:sa="5.484" berti:da="0.855"/><path d="M118.29828967245716,-304.59800752539155 A9.263,9.263, 0.08653342431387885,0,1, 125.22323484908544, -296.87058877409584" berti:cx="116.046"  berti:cy="-295.613" berti:r="9.263" berti:sa="4.958" berti:da="1.189"/><path d="M113.75246919867148,-286.63843118231534 A9.263,9.263, 0.03178244567881674,0,1, 107.75655534644041, -291.4792031574384" berti:cx="116.046"  berti:cy="-295.613" berti:r="9.263" berti:sa="1.821" berti:da="0.858"/><path d="M92.10019335976422,-276.2667716997615 A9.263,9.263, 0.08134979643545569,0,1, 100.85053988890576, -271.1795512038292" berti:cx="92.576"  berti:cy="-267.016" berti:r="9.263" berti:sa="4.661" berti:da="1.156"/><path d="M92.7130533740948,-257.7540139617548 A9.263,9.263, 0.027157323161031765,0,1, 83.87012907800563, -263.85198664832575" berti:cx="92.576"  berti:cy="-267.016" berti:r="9.263" berti:sa="1.556" berti:da="1.237"/><path d="M73.9509974426767,-243.5757604156211 A9.263,9.263, 0.08000589291142006,0,1, 83.12831400877775, -239.0732362678576" berti:cx="75.137"  berti:cy="-234.389" berti:r="9.263" berti:sa="4.584" berti:da="1.169"/><path d="M77.2288756021683,-225.36529646624774 A9.263,9.263, 0.023439771854283847,0,1, 68.00234789375979, -228.4813855641281" berti:cx="75.137"  berti:cy="-234.389" berti:r="9.263" berti:sa="1.343" berti:da="1.107"/><path d="M71.61702174652001,-204.79121347154557 A9.263,9.263, 0.0978431578668021,0,0, 61.92379430165363, -207.91344807088856" berti:cx="64.398"  berti:cy="-198.987" berti:r="9.263" berti:sa="5.606" berti:da="-1.164"/><path d="M58.351612704582934,-191.96956673178724 A9.263,9.263, 0.0398284135305106,0,0, 68.37526468882788, -190.62132402043906" berti:cx="64.398"  berti:cy="-198.987" berti:r="9.263" berti:sa="2.282" berti:da="-1.155"/><path d="M66.28605592701845,-169.6130072036585 A9.263,9.263, 0.09337511498169662,0,0, 55.64625541488059, -169.8855629378626" berti:cx="60.772"  berti:cy="-162.17" berti:r="9.263" berti:sa="5.35" berti:da="-1.224"/><path d="M55.76400507583565,-154.37749360991316 A9.263,9.263, 0.03738495257771854,0,0, 65.31657428432464, -154.0984441664413" berti:cx="60.772"  berti:cy="-162.17" berti:r="9.263" berti:sa="2.142" berti:da="-1.084"/><path d="M67.81327598709004,-133.9644041096807 A9.263,9.263, 0.08883725892651137,0,0, 58.15625187978125, -132.19824936744314" berti:cx="64.398"  berti:cy="-125.354" berti:r="9.263" berti:sa="5.09" berti:da="-1.117"/><path d="M61.685352480015595,-116.49709803417005 A9.263,9.263, 0.03260275042725408,0,0, 71.79448853995449, -119.77769958858725" berti:cx="64.398"  berti:cy="-125.354" berti:r="9.263" berti:sa="1.868" berti:da="-1.222"/><path d="M77.56852740027512,-98.89016779332943 A9.263,9.263, 0.08688249016427772,0,0, 67.9835665536122, -95.8368584458847" berti:cx="75.137"  berti:cy="-89.952" berti:r="9.263" berti:sa="4.978" berti:da="-1.148"/><path d="M74.69991473524004,-80.69931793092783 A9.263,9.263, 0.028239427297268256,0,0, 82.69206858064445, -84.5925123620108" berti:cx="75.137"  berti:cy="-89.952" berti:r="9.263" berti:sa="1.618" berti:da="-1.001"/><path d="M84.60082023915275,-62.03496023578233 A9.263,9.263, 0.0641408500107916,0,1, 92.3974111274076, -66.58625892289169" berti:cx="92.577"  berti:cy="-57.325" berti:r="9.263" berti:sa="3.675" berti:da="1.018"/><path d="M93.9960058685007,-48.171334540460826 A9.263,9.263, 0.024731315500759653,0,0, 101.43985824431955, -54.6318767683047" berti:cx="92.577"  berti:cy="-57.325" berti:r="9.263" berti:sa="1.417" berti:da="-1.122"/><path d="M107.08348742060632,-31.06820026156093 A9.263,9.263, 0.05928883469024737,0,1, 115.01633622066754, -37.93359403306114" berti:cx="116.046"  berti:cy="-28.728" berti:r="9.263" berti:sa="3.397" berti:da="1.204"/><path d="M118.55952348952425,-19.81254327206902 A9.263,9.263, 0.02261946710584651,0,0, 125.2715101658901, -29.560545001221175" berti:cx="116.046"  berti:cy="-28.728" berti:r="9.263" berti:sa="1.296" berti:da="-1.386"/><path d="M148.7047211927739,3.066485715233501 A9.263,9.263, 0.01949532774477666,0,0, 153.89995638134656, -4.897834571685197" berti:cx="144.644"  berti:cy="-5.259" berti:r="9.263" berti:sa="1.117" berti:da="-1.078"/><path d="M135.40394976310893,-5.9106445501416465 A9.263,9.263, 0.05605997557405786,0,1, 143.09157368586955, -14.39098453454644" berti:cx="144.644"  berti:cy="-5.259" berti:r="9.263" berti:sa="3.212" berti:da="1.332"/><path d="M181.50464818657198,20.418381135633542 A9.263,9.263, 0.019128808601857852,0,0, 186.26308199013164, 9.960169979757401" berti:cx="177.27"  berti:cy="12.18" berti:r="9.263" berti:sa="1.096" berti:da="-1.338"/><path d="M172.56018625573304,4.203733737248107 A9.263,9.263, 0.07293730944084303,0,0, 168.06358893696913, 13.202332792442157" berti:cx="177.27"  berti:cy="12.18" berti:r="9.263" berti:sa="4.179" berti:da="-1.148"/><path d="M204.04794161540585,26.29964875121791 A9.263,9.263, 0.04831071369520304,0,1, 204.88051376591085, 17.909418054967134" berti:cx="212.672"  berti:cy="22.919" berti:r="9.263" berti:sa="2.768" berti:da="0.945"/><path d="M219.0655298619983,29.6216819187349 A9.263,9.263, 0.014119713648634128,0,0, 221.48779670239446, 20.07560458218505" berti:cx="212.672"  berti:cy="22.919" berti:r="9.263" berti:sa="0.809" berti:da="-1.121"/><path d="M241.74794115743177,31.633679407624474 A9.263,9.263, 0.04468042885105484,0,1, 241.64188085596507, 21.621425751792835" berti:cx="249.488"  berti:cy="26.545" berti:r="9.263" berti:sa="2.56" berti:da="1.142"/><path d="M257.7881342845789,30.65729131482161 A9.263,9.263, 0.008028514559173916,0,0, 256.60248143969994, 20.613109673622986" berti:cx="249.488"  berti:cy="26.545" berti:r="9.263" berti:sa="0.46" berti:da="-1.155"/><path d="M292.9731301520616,16.489442528823044 A9.263,9.263, 0.0962723615400072,0,1, 294.90785705678263, 26.3532421959678" berti:cx="286.305"  berti:cy="22.919" berti:r="9.263" berti:sa="5.516" berti:da="1.147"/><path d="M280.1471124838613,29.838796986804084 A9.263,9.263, 0.040107666210829694,0,1, 278.0947940336255, 18.629980649413174" berti:cx="286.305"  berti:cy="22.919" berti:r="9.263" berti:sa="2.298" berti:da="1.325"/><path d="M330.7302772875825,14.273713445387813 A9.263,9.263, 0.003979350694547071,0,0, 326.2999215266588, 4.135856736112032" berti:cx="321.707"  berti:cy="12.18" berti:r="9.263" berti:sa="0.228" berti:da="-1.28"/><path d="M317.8269807712161,20.591219874921066 A9.263,9.263, 0.03495894491744642,0,1, 312.9910949062404, 9.043733525898183" berti:cx="321.707"  berti:cy="12.18" berti:r="9.263" berti:sa="2.003" berti:da="1.484"/><path d="M363.5712043432075,-5.936310499802201 A9.263,9.263, 0.10838494654884787,0,0, 357.24340961648, -14.052900435205121" berti:cx="354.333"  berti:cy="-5.259" berti:r="9.263" berti:sa="6.21" berti:da="-1.178"/><path d="M351.7268280611139,3.629815265543691 A9.263,9.263, 0.03239331091701476,0,1, 345.23916578920586, -7.021199860001483" berti:cx="354.333"  berti:cy="-5.259" berti:r="9.263" berti:sa="1.856" berti:da="1.477"/><path d="M385.8316142623057,-37.525806447386685 A9.263,9.263, 0.08780751466783472,0,1, 392.0928464344339, -30.087460238277835" berti:cx="382.93"  berti:cy="-28.729" berti:r="9.263" berti:sa="5.031" berti:da="1.105"/><path d="M381.0878770090197,-19.651018292257817 A9.263,9.263, 0.030909781052819572,0,1, 373.79371008330725, -27.202115735185533" berti:cx="382.93"  berti:cy="-28.729" berti:r="9.263" berti:sa="1.771" berti:da="1.205"/><path d="M415.1280688114415,-60.42543973729441 A9.263,9.263, 0.10370746415350306,0,0, 407.2556301239516, -66.54930492994451" berti:cx="406.399"  berti:cy="-57.326" berti:r="9.263" berti:sa="5.942" berti:da="-1.137"/><path d="M398.0009777111419,-53.41749764796764 A9.263,9.263, 0.04722860955896655,0,0, 407.01727437145945, -48.08365690954959" berti:cx="406.399"  berti:cy="-57.326" berti:r="9.263" berti:sa="2.706" berti:da="-1.202"/><path d="M426.04800368295656,-80.95625257531736 A9.263,9.263, 0.023212879051524582,0,1, 416.4014091661675, -84.43064042209794" berti:cx="423.839"  berti:cy="-89.952" berti:r="9.263" berti:sa="1.33" berti:da="1.173"/><path d="M431.9893346272457,-94.35372857681156 A9.263,9.263, 0.10101965710543179,0,0, 421.63366088563384, -98.94864650804102" berti:cx="423.839"  berti:cy="-89.952" berti:r="9.263" berti:sa="5.788" berti:da="-1.316"/><path d="M428.2829573067878,-118.55873646643221 A9.263,9.263, 0.04045673206122856,0,0, 437.61285679625774, -116.60226798706633" berti:cx="434.578"  berti:cy="-125.354" berti:r="9.263" berti:sa="2.318" berti:da="-1.081"/><path d="M441.88326955904085,-131.04927924422944 A9.263,9.263, 0.09810495725460128,0,0, 431.4942455150924, -134.0886223316645" berti:cx="434.578"  berti:cy="-125.354" berti:r="9.263" berti:sa="5.621" berti:da="-1.248"/><path d="M432.58055769919264,-169.53071095000274 A9.263,9.263, 0.07086036763096977,0,1, 441.99470608114746, -170.62184692279453" berti:cx="438.204"  berti:cy="-162.17" berti:r="9.263" berti:sa="4.06" berti:da="1.074"/><path d="M443.5013286730847,-154.57121865498715 A9.263,9.263, 0.016790067404185448,0,1, 433.20380008492424, -154.37248951207653" berti:cx="438.204"  berti:cy="-162.17" berti:r="9.263" berti:sa="0.962" berti:da="1.179"/><path d="M430.8415252710781,-190.5110383672336 A9.263,9.263, 0.03466223894460738,0,0, 440.71921134034756, -192.0523989103059" berti:cx="434.578"  berti:cy="-198.987" berti:r="9.263" berti:sa="1.986" berti:da="-1.14"/><path d="M437.3384999656549,-207.82910432756927 A9.263,9.263, 0.08752826198751562,0,0, 428.24780656440754, -205.74953059645443" berti:cx="434.578"  berti:cy="-198.987" berti:r="9.263" berti:sa="5.015" berti:da="-1.055"/><path d="M422.5628907810357,-225.21432211675668 A9.263,9.263, 0.02982767691658309,0,0, 432.09339783929283, -230.18565784039924" berti:cx="423.839"  berti:cy="-234.389" berti:r="9.263" berti:sa="1.709" berti:da="-1.238"/><path d="M425.53935496877864,-243.49460058316583 A9.263,9.263, 0.08546877347016231,0,0, 416.38385970114604, -239.886640596147" berti:cx="423.839"  berti:cy="-234.389" berti:r="9.263" berti:sa="4.897" berti:da="-1.12"/><path d="M397.4281983445272,-269.31933158526624 A9.263,9.263, 0.05921902152016759,0,1, 407.1828170595471, -276.2448627536536" berti:cx="406.4"  berti:cy="-267.015" berti:r="9.263" berti:sa="3.393" berti:da="1.404"/><path d="M406.1480434540979,-257.7554272831314 A9.263,9.263, 0.027890361446869384,0,0, 415.27885735578764, -264.375102074781" berti:cx="406.4"  berti:cy="-267.015" berti:r="9.263" berti:sa="1.598" berti:da="-1.309"/><path d="M383.70629729767273,-286.3825025540212 A9.263,9.263, 0.02595304597715568,0,0, 392.0756863259084, -294.13723545213224" berti:cx="382.931"  berti:cy="-295.613" berti:r="9.263" berti:sa="1.487" berti:da="-1.327"/><path d="M382.58474656120524,-304.8695262143054 A9.263,9.263, 0.08159414253073491,0,0, 373.77397068751196, -297.01013391277814" berti:cx="382.931"  berti:cy="-295.613" berti:r="9.263" berti:sa="4.675" berti:da="-1.382"/><path d="M358.30289702561043,-310.71235093925077 A9.263,9.263, 0.019687313962496036,0,0, 363.4522781616319, -317.4509965152991" berti:cx="354.334"  berti:cy="-319.082" berti:r="9.263" berti:sa="1.128" berti:da="-0.951"/><path d="M352.37234462620256,-328.13490435133673 A9.263,9.263, 0.07852236304722489,0,0, 345.07819150601557, -319.4469357788512" berti:cx="354.334"  berti:cy="-319.082" berti:r="9.263" berti:sa="4.499" berti:da="-1.318"/><path d="M326.0974036794727,-328.36555932215083 A9.263,9.263, 0.018797196043978927,0,0, 330.9652577486928, -336.2256345857406" berti:cx="321.707"  berti:cy="-336.522" berti:r="9.263" berti:sa="1.077" berti:da="-1.045"/><path d="M312.88438381161995,-333.69983547741555 A9.263,9.263, 0.049427724416479406,0,1, 316.3899881451757, -344.1070216832688" berti:cx="321.707"  berti:cy="-336.522" berti:r="9.263" berti:sa="2.832" berti:da="1.269"/><path d="M277.9909019237576,-343.17701393506024 A9.263,9.263, 0.04686209041604775,0,1, 278.46874369012977, -352.20025662888855" berti:cx="286.305"  berti:cy="-347.261" berti:r="9.263" berti:sa="2.685" berti:da="1.019"/><path d="M292.96145150724385,-340.81935251416917 A9.263,9.263, 0.013421581947836395,0,0, 295.3324466651331, -349.3366627154182" berti:cx="286.305"  berti:cy="-347.261" berti:r="9.263" berti:sa="0.769" berti:da="-0.995"/></g><g title="Cleanup" stroke="#000000"><path d="M484.5796766036243,-83.74194395125659 A247.829,247.829, 0.005619960191421741,1,1, 249.63942837082018, -409.99995373714614" berti:cx="249.488"  berti:cy="-162.171" berti:r="247.829" berti:sa="0.322" berti:da="4.391"/><path d="M566.2680727714744,-328.80442513620943 A61.677,61.677, 0.005619960191421741,0,0, 507.74843804781574, -409.99999872073346" berti:cx="507.761"  berti:cy="-348.323" berti:r="61.677" berti:sa="0.322" berti:da="-1.893"/><line x1="484.6" y1="-83.8" x2="566.273" y2="-328.819"/><line x1="249.488" y1="-410" x2="507.761" y2="-410"/><path d="M240.17529791669565,-350.6578820131921 A188.716,188.716, 0.0813847030204956,0,0, 221.777937194243, -348.84192092674857" berti:cx="249.492"  berti:cy="-162.172" berti:r="188.716" berti:sa="4.663" berti:da="-0.098"/><path d="M203.646529377751,-345.2346162803987 A188.716,188.716, 0.07796385768658669,0,0, 185.95506918722003, -339.8705849096498" berti:cx="249.492"  berti:cy="-162.172" berti:r="188.716" berti:sa="4.467" berti:da="-0.098"/><path d="M168.87332946618216,-332.8013017548854 A188.716,188.716, 0.07454301235267781,0,0, 152.56523198783654, -324.0946058915686" berti:cx="249.492"  berti:cy="-162.172" berti:r="188.716" berti:sa="4.271" berti:da="-0.098"/><path d="M137.0356685380151,-313.72166898714164 A188.716,188.716, 0.07110471372624898,0,0, 122.7471457032539, -301.9914212736436" berti:cx="249.492"  berti:cy="-162.172" berti:r="188.716" berti:sa="4.074" berti:da="-0.098"/><path d="M109.67490654916574,-288.91942220242856 A188.716,188.716, 0.0676838683923401,0,0, 97.9443964142711, -274.631114808106" berti:cx="249.492"  berti:cy="-162.172" berti:r="188.716" berti:sa="3.878" berti:da="-0.098"/><path d="M87.66818498135669,-259.2636142043787 A188.716,188.716, 0.06426302305843122,0,0, 78.94488602322099, -242.96439178407553" berti:cx="249.492"  berti:cy="-162.172" berti:r="188.716" berti:sa="3.682" berti:da="-0.098"/><path d="M71.7945820412125,-225.7121944188085 A188.716,188.716, 0.06082472443200238,0,0, 66.43022574955899, -208.0208327471985" berti:cx="249.492"  berti:cy="-162.172" berti:r="188.716" berti:sa="3.485" berti:da="-0.098"/><path d="M62.82258810191897,-189.88949118561362 A188.716,188.716, 0.057403879098093503,0,0, 61.006289129385294, -171.49216381825164" berti:cx="249.492"  berti:cy="-162.172" berti:r="188.716" berti:sa="3.289" berti:da="-0.098"/><path d="M61.00801945882776,-152.81690858649608 A188.716,188.716, 0.05396558047166467,0,0, 62.82772755700361, -134.41991810824234" berti:cx="249.492"  berti:cy="-162.172" berti:r="188.716" berti:sa="3.092" berti:da="-0.098"/><path d="M66.43872501045038,-116.28924537911503 A188.716,188.716, 0.05054473513775578,0,0, 71.80635954631694, -98.59887806498352" berti:cx="249.492"  berti:cy="-162.172" berti:r="188.716" berti:sa="2.896" berti:da="-0.098"/><path d="M78.87912164710826,-81.51857852179256 A188.716,188.716, 0.0471238898038469,0,0, 87.58913885229566, -65.2122547023396" berti:cx="249.492"  berti:cy="-162.172" berti:r="188.716" berti:sa="2.7" berti:da="-0.098"/><path d="M97.96523849751338,-49.684804263913904 A188.716,188.716, 0.04368559117741807,0,0, 109.69839615693164, -35.3986708626484" berti:cx="249.492"  berti:cy="-162.172" berti:r="188.716" berti:sa="2.503" berti:da="-0.098"/><path d="M122.77305742184326,-22.32909439562613 A188.716,188.716, 0.040264745843509184,0,0, 137.06375371038666, -10.601494649380896" berti:cx="249.492"  berti:cy="-162.172" berti:r="188.716" berti:sa="2.307" berti:da="-0.098"/><path d="M152.43334698427506,-0.3284133776901399 A188.716,188.716, 0.036843900509600305,0,0, 168.73434576875525, 8.391565684664101" berti:cx="249.492"  berti:cy="-162.172" berti:r="188.716" berti:sa="2.111" berti:da="-0.098"/><path d="M185.98799910150723,15.538355708057225 A188.716,188.716, 0.03340560188317147,0,0, 203.68045298180567, 20.8991086321372" berti:cx="249.492"  berti:cy="-162.172" berti:r="188.716" berti:sa="1.914" berti:da="-0.098"/><path d="M221.8125289464387,24.503053336526648 A188.716,188.716, 0.029984756549262578,0,0, 240.2102258636454, 26.315605228783397" berti:cx="249.492"  berti:cy="-162.172" berti:r="188.716" berti:sa="1.718" berti:da="-0.098"/><path d="M258.696993619052,26.31937048807623 A188.716,188.716, 0.0265639112153537,0,0, 277.09542734637, 24.514312981786844" berti:cx="249.492"  berti:cy="-162.172" berti:r="188.716" berti:sa="1.522" berti:da="-0.098"/><path d="M295.41203671617694,20.871926105142762 A188.716,188.716, 0.023125612588924864,0,0, 313.1013104200636, 15.500688626822978" berti:cx="249.492"  berti:cy="-162.172" berti:r="188.716" berti:sa="1.325" berti:da="-0.098"/><path d="M330.1801690768694,8.4244478734025 A188.716,188.716, 0.019704767255015982,0,0, 346.48471856099826, -0.2888903123399018" berti:cx="249.492"  berti:cy="-162.172" berti:r="188.716" berti:sa="1.129" berti:da="-0.098"/><path d="M361.858495262402,-10.55570998324555 A188.716,188.716, 0.016283921921107093,0,0, 376.1539675608348, -22.277487492832535" berti:cx="249.492"  berti:cy="-162.172" berti:r="188.716" berti:sa="0.933" berti:da="-0.098"/><path d="M389.3607119568418,-35.48154230276843 A188.716,188.716, 0.012845623294678263,0,0, 401.0854008279442, -49.77462689271496" berti:cx="249.492"  berti:cy="-162.172" berti:r="188.716" berti:sa="0.736" berti:da="-0.098"/><path d="M411.3553515122554,-65.1463121991911 A188.716,188.716, 0.00942477796076938,0,0, 420.0720103170993, -81.44908667163772" berti:cx="249.492"  berti:cy="-162.172" berti:r="188.716" berti:sa="0.54" berti:da="-0.098"/><path d="M427.15172942960686,-98.52650373358003 A188.716,188.716, 0.006003932626860493,0,0, 432.526569627566, -116.2146830934215" berti:cx="249.492"  berti:cy="-162.172" berti:r="188.716" berti:sa="0.344" berti:da="-0.098"/><path d="M436.17268703117315,-134.53055022671236 A188.716,188.716, 0.002565634000431664,0,0, 437.98149176796335, -152.9286159305761" berti:cx="249.492"  berti:cy="-162.172" berti:r="188.716" berti:sa="0.147" berti:da="-0.098"/><path d="M437.9797756662946,-171.45031236662211 A188.716,188.716, 0.10880382556932651,0,0, 436.1675616669145, -189.84804257010023" berti:cx="249.492"  berti:cy="-162.172" berti:r="188.716" berti:sa="6.234" berti:da="-0.098"/><path d="M432.56394997730274,-207.9801847218156 A188.716,188.716, 0.10538298023541762,0,0, 427.2035219941863, -225.6727370548551" berti:cx="249.492"  berti:cy="-162.172" berti:r="188.716" berti:sa="6.038" berti:da="-0.098"/><path d="M420.05704885303584,-242.92652164282504 A188.716,188.716, 0.10194468160898879,0,0, 411.33736917671195, -259.2276805759139" berti:cx="249.492"  berti:cy="-162.172" berti:r="188.716" berti:sa="5.841" berti:da="-0.098"/><path d="M401.0645701850959,-274.597462522883 A188.716,188.716, 0.09852383627507989,0,0, 389.33723290412127, -288.8883741984124" berti:cx="249.492"  berti:cy="-162.172" berti:r="188.716" berti:sa="5.645" berti:da="-0.098"/><path d="M376.2678965688657,-301.9632754972937 A188.716,188.716, 0.09510299094117101,0,0, 361.9819786614826, -313.6966955342237" berti:cx="249.492"  berti:cy="-162.172" berti:r="188.716" berti:sa="5.449" berti:da="-0.098"/><path d="M346.4547187933865,-324.0730803552424 A188.716,188.716, 0.09166469231474218,0,0, 330.14855494508197, -332.7833970413201" berti:cx="249.492"  berti:cy="-162.172" berti:r="188.716" berti:sa="5.252" berti:da="-0.098"/><path d="M313.0683853033009,-339.8564728381358 A188.716,188.716, 0.0882438469808333,0,0, 295.3781165742658, -345.22443227483456" berti:cx="249.492"  berti:cy="-162.172" berti:r="188.716" berti:sa="5.056" berti:da="-0.098"/><path d="M277.2475101678677,-348.8357627160703 A188.716,188.716, 0.08482300164692443,0,0, 258.8505531135222, -350.65580869353573" berti:cx="249.492"  berti:cy="-162.172" berti:r="188.716" berti:sa="4.86" berti:da="-0.098"/><path d="M122.7589733182827,-301.99572341779157 A9.263,9.263, 0.09639453458764682,0,1, 109.65768649581355, -288.90534619466473" berti:cx="116.046"  berti:cy="-295.613" berti:r="9.263" berti:sa="5.523" berti:da="3.092"/><path d="M97.90985293044324,-274.5891883587035 A9.263,9.263, 0.09295623596121798,0,1, 87.62412542357944, -259.1877110950477" berti:cx="92.576"  berti:cy="-267.016" berti:r="9.263" berti:sa="5.326" berti:da="3.092"/><path d="M78.89386845800102,-242.85594209199976 A9.263,9.263, 0.08953539062730911,0,1, 71.80447650400545, -225.7462309906695" berti:cx="75.137"  berti:cy="-234.389" berti:r="9.263" berti:sa="5.13" berti:da="3.092"/><path d="M66.43402156441829,-208.02346973044362 A9.263,9.263, 0.08611454529340022,0,1, 62.81244048970113, -189.86070995205057" berti:cx="64.398"  berti:cy="-198.987" berti:r="9.263" berti:sa="4.934" berti:da="3.092"/><path d="M60.99994886154596,-171.43019483145574 A9.263,9.263, 0.08267624666697139,0,1, 61.0033808069857, -152.90989028563058" berti:cx="60.772"  berti:cy="-162.17" berti:r="9.263" berti:sa="4.737" berti:da="3.092"/><path d="M62.818184759272995,-134.4812861686904 A9.263,9.263, 0.07925540133306251,0,1, 66.42833373724083, -116.31625061669546" berti:cx="64.398"  berti:cy="-125.354" berti:r="9.263" berti:sa="4.541" berti:da="3.092"/><path d="M71.81055761853074,-98.5967980081657 A9.264,9.264, 0.0758345559991536,0,1, 78.88994374504445, -81.48078075053414" berti:cx="75.138"  berti:cy="-89.951" berti:r="9.264" berti:sa="4.345" berti:da="3.092"/><path d="M87.62222448745229,-65.15145313154417 A9.263,9.263, 0.07239625737272479,0,1, 97.91365929641375, -49.75378896384465" berti:cx="92.577"  berti:cy="-57.325" berti:r="9.263" berti:sa="4.148" berti:da="3.092"/><path d="M109.66190946181294,-35.43967318931952 A9.263,9.263, 0.0689754120388159,0,1, 122.75495479448685, -22.341052797655834" berti:cx="116.046"  berti:cy="-28.728" berti:r="9.263" berti:sa="3.952" berti:da="3.092"/><path d="M137.06972543546055,-10.591310364276527 A9.263,9.263, 0.06553711341238708,0,1, 152.47329730674204, -0.30871993896891237" berti:cx="144.644"  berti:cy="-5.259" berti:r="9.263" berti:sa="3.755" berti:da="3.092"/><path d="M168.80229291018168,8.424856109143011 A9.263,9.263, 0.062116268078478185,0,1, 185.91344757580435, 15.510763126420459" berti:cx="177.27"  berti:cy="12.18" berti:r="9.263" berti:sa="3.559" berti:da="3.092"/><path d="M203.63511577395047,20.884818964551727 A9.263,9.263, 0.0586954227445693,0,1, 221.79861279464262, 24.502700696680247" berti:cx="212.672"  berti:cy="22.919" berti:r="9.263" berti:sa="3.363" berti:da="3.092"/><path d="M240.2277589335386,26.318937196730182 A9.263,9.263, 0.055257124118140474,0,1, 258.74806239623166, 26.311733161601357" berti:cx="249.488"  berti:cy="26.545" berti:r="9.263" berti:sa="3.166" berti:da="3.092"/><path d="M277.17803578665354,24.500674191574458 A9.263,9.263, 0.05183627878423159,0,1, 295.3443633267086, 20.895863907752187" berti:cx="286.305"  berti:cy="22.919" berti:r="9.263" berti:sa="2.97" berti:da="3.093"/><path d="M313.0661462425851,15.517486380941243 A9.263,9.263, 0.04839798015780276,0,1, 330.1755406703369, 8.426736364861863" berti:cx="321.707"  berti:cy="12.18" berti:r="9.263" berti:sa="2.773" berti:da="3.093"/><path d="M346.50755618578955,-0.30263055143833917 A9.263,9.263, 0.04497713482389387,0,1, 361.9084583599092, -10.589628446748296" berti:cx="354.333"  berti:cy="-5.259" berti:r="9.263" berti:sa="2.577" berti:da="3.093"/><path d="M376.2203516456542,-22.34323195714797 A9.262,9.262, 0.04155628948998498,0,1, 389.32159760887487, -35.431142845428944" berti:cx="382.93"  berti:cy="-28.728" berti:r="9.262" berti:sa="2.381" berti:da="3.093"/><path d="M401.0692324230892,-49.75063954382654 A9.263,9.263, 0.03811799086355616,0,1, 411.35651317002646, -65.15135278408289" berti:cx="406.4"  berti:cy="-57.326" berti:r="9.263" berti:sa="2.184" berti:da="3.093"/><path d="M420.0855808320608,-81.48352826362708 A9.263,9.263, 0.03469714552964727,0,1, 427.17664507851896, -98.59279245959758" berti:cx="423.839"  berti:cy="-89.952" berti:r="9.263" berti:sa="1.988" berti:da="3.093"/><path d="M432.54587898203147,-116.31667728728489 A9.262,9.262, 0.031276300195738384,0,1, 436.1687962049354, -134.47736361804826" berti:cx="434.578"  berti:cy="-125.353" berti:r="9.262" berti:sa="1.792" berti:da="3.093"/><path d="M437.97982326438404,-152.90971308267348 A9.263,9.263, 0.027838001569309555,0,1, 437.97810727059203, -171.43024521677478" berti:cx="438.204"  berti:cy="-162.17" berti:r="9.263" berti:sa="1.595" berti:da="3.093"/><path d="M436.1615330768097,-189.86035812060922 A9.263,9.263, 0.02441715623540067,0,1, 432.5530228736267, -208.02595108061024" berti:cx="434.578"  berti:cy="-198.987" berti:r="9.263" berti:sa="1.399" berti:da="3.093"/><path d="M427.16960438008,-225.74549125277287 A9.263,9.263, 0.020996310901491785,0,1, 420.092481280039, -242.86052680931732" berti:cx="423.839"  berti:cy="-234.389" berti:r="9.263" berti:sa="1.203" berti:da="3.093"/><path d="M411.35796317897166,-259.19056582774436 A9.263,9.263, 0.017558012275062956,0,1, 401.0678287459427, -274.58937249661017" berti:cx="406.4"  berti:cy="-267.015" berti:r="9.263" berti:sa="1.006" berti:da="3.093"/><path d="M389.31782398443204,-288.90392790380935 A9.263,9.263, 0.014137166941154071,0,1, 376.22583163069964, -302.003922166584" berti:cx="382.931"  berti:cy="-295.613" berti:r="9.263" berti:sa="0.81" berti:da="3.093"/><path d="M361.9049303716546,-313.7446255099707 A9.264,9.264, 0.010716321607245182,0,1, 346.5107523304861, -324.04527889572853" berti:cx="354.333"  berti:cy="-319.082" berti:r="9.264" berti:sa="0.614" berti:da="3.093"/><path d="M330.1762360316318,-332.77030571068093 A9.263,9.263, 0.007278022980816354,0,1, 313.0655279307585, -339.85788511140885" berti:cx="321.707"  berti:cy="-336.522" berti:r="9.263" berti:sa="0.417" berti:da="3.093"/><path d="M295.3427120926191,-345.2305002755658 A9.263,9.263, 0.003857177646907468,0,1, 277.1793273940133, -348.85010933807087" berti:cx="286.305"  berti:cy="-347.261" berti:r="9.263" berti:sa="0.221" berti:da="3.093"/><path d="M258.7481054632618,-350.655449121642 A9.263,9.263, 0.0004363323129985824,0,1, 240.22757783493998, -350.6684815228295" berti:cx="249.488"  berti:cy="-350.887" berti:r="9.263" berti:sa="0.025" berti:da="3.093"/><path d="M221.79802522564427,-348.84808304159054 A9.263,9.263, 0.10665707058937347,0,1, 203.6338372795741, -345.2325070522422" berti:cx="212.672"  berti:cy="-347.261" berti:r="9.263" berti:sa="6.111" berti:da="3.093"/><path d="M185.91221255358056,-339.855966283383 A9.263,9.263, 0.1032362252554646,0,1, 168.8036852019375, -332.763718113272" berti:cx="177.27"  berti:cy="-336.522" berti:r="9.263" berti:sa="5.915" berti:da="3.092"/><path d="M152.47046212421492,-324.03618137099596 A9.263,9.263, 0.0998153799215557,0,1, 137.07070218638614, -313.74788286708355" berti:cx="144.643"  berti:cy="-319.083" berti:r="9.263" berti:sa="5.719" berti:da="3.092"/></g></g>
</svg>
