<svg
	width="15836.33984375"
	height="2791.4765625"
	viewBox="-6754.9921875 -1943.4765625 15836.33984375 2791.4765625"
	xmlns="http://www.w3.org/2000/svg" version="1.1"
	xmlns:xlink="http://www.w3.org/1999/xlink"
	xmlns:berti="http://www.albertidraw.com/alberti"
  fill="none"
  berti:version="0.1.0">
<title>spiral staircase.svg</title>
<g xmlns="http://www.w3.org/2000/svg" id="workspace"><g title="Auxiliary VL's" stroke="#ffbd4a" display="none"><line x1="1087.7530584916205" y1="-928.9730358698337" x2="-1304.702750870454" y2="1117.2062747687842"/><circle cx="30.395718011396593" cy="-24.65425782753645" r="523.4277590775727"/><path d="M134.58249419055005,796.2656855151043 A952.1412647878154,952.1412647878154, 0, 1,1, -1103.1392654927008,-650.9166796530042" berti:cx="-484.2783856510754"  berti:cy="72.67450293105013" berti:r="952.1412647878154" berti:sa="0.8632546529404174" berti:da="3.1415926535897936" berti:type="carc"/><path d="M1087.7530584916208,-928.9730358698334 A985.5179818775453,985.5179818775453, 0, 0,1, 134.58249419054977,796.2656855151047" berti:cx="611.1677763410852"  berti:cy="-66.35367517736444" berti:r="985.5179818775453" berti:sa="5.2171389686626775" berti:da="3.141592653589793" berti:type="carc"/><line x1="-1103.1392654927015" y1="-650.9166796530051" x2="1320.7683074342242" y2="688.2587750027546"/><path d="M1087.7530584916203,-928.9730358698343 A1104.233276138471,1104.233276138471, 0, 0,0, -1103.1392654927013,-650.9166796530045" berti:cx="-7.693103500540529"  berti:cy="-789.9448577614194" berti:r="1104.233276138471" berti:sa="6.156945554498396" berti:da="-3.141592653589793" berti:type="carc"/><line x1="134.58249419055002" y1="796.2656855151043" x2="-215.74529124745987" y2="-1964.0756583671482"/><line x1="-1103.1392654927015" y1="-650.9166796530051" x2="-204.6274964274189" y2="-1876.4751026299286"/><line x1="-204.6274964274189" y1="-1876.4751026299286" x2="1087.7530584916205" y2="-928.9730358698337"/></g><g title="Perspective Space" stroke="#7788ff"><line x1="1105.9999999999998" y1="-962" x2="105.99999999999999" y2="847.9999999999999"/><line x1="166" y1="832.9999999999999" x2="-1134" y2="-687"/><line x1="-6754.992477802083" y1="66.3863538567166" x2="9081.34865115797" y2="-1943.4775093373464"/></g><g title="PS Markers" stroke="#7788ff" display="none"><use xlink:href="#point_template"  x="-1103.1392654927015" y="-650.9166796530051" fill="black"/><use xlink:href="#point_template"  x="1087.7530584916205" y="-928.9730358698337" fill="black"/><use xlink:href="#point_template"  x="134.58249419055002" y="796.2656855151043" fill="black"/></g><g title="45 Degree VP's" stroke="#ff2970" display="none"><line x1="555.097672810737" y1="94.32180899016703" x2="510.5651131660649" y2="59.136291387533674"/><line x1="-42.1720168177546" y1="-821.3753557111446" x2="-29.95402826343745" y2="-742.0231746551987"/><line x1="-415.9095908555611" y1="193.8870580761859" x2="-375.29080732600204" y2="148.00815770288852"/></g><g title="Projection" stroke="#c6c1db" display="none"><line x1="-220.8001158031556" y1="380.7414030609257" x2="-434.3225984265396" y2="563.3593158309259"/><line x1="-84.87410952095189" y1="539.6702719447329" x2="-300.4230601807856" y2="724.021339556784"/><line x1="-243.80298154058835" y1="675.5962745604286" x2="-379.7289846869627" y2="516.6674093431296"/><line x1="-231.14043621478396" y1="513.2854904383902" x2="-233.507033242241" y2="543.6209569140476"/><line x1="-219.24592004607592" y1="529.187364740646" x2="-247.3350111369668" y2="526.9960172087322"/><circle cx="-232.3015488045418" cy="528.168840511262" r="23.69640073262764"/><ellipse cx="-232.30154788791435" cy="528.168839727304" rx="104.56369441335431" ry="104.56369270760266" transform="rotate(-18.0392, -232.302, 528.169)" berti:cx="-232.30154788791435"  berti:cy="528.168839727304" berti:rx="104.56369441335431" berti:ry="104.56369270760266" berti:xrot="-0.31484257080170397" berti:a="1.1954585605505042e-14" berti:b="1.1484281549646651e-22" berti:c="1.1954585920733363e-14" berti:d="2.777068679861004e-12" berti:f="-6.314039748495939e-12" berti:g="3.8492901483025965e-9"/><line x1="-164.33854644739677" y1="607.6332740365377" x2="-300.26455116168586" y2="448.7044069859847"/><line x1="-152.83711266205364" y1="460.2058375028295" x2="-326.5445003754903" y2="608.7713629988696"/><path d="M-244.0336541149797,505.18058717468057 A6.186001843723512,6.186001843723512, 0, 0,1, -241.70402641736902,508.65260864761245" berti:cx="-247.70343920548044"  berti:cy="510.1604763501632" berti:r="6.186001843723512" berti:sa="5.347466870051537" berti:da="0.6894828693527408" berti:type="carc"/><path d="M-237.38766987724253,503.3310387992415 A6.186001843723524,6.186001843723524, 0, 0,1, -236.33277186622553,506.9016842163481" berti:cx="-242.51772519314278"  berti:cy="506.78779324038345" berti:r="6.186001843723524" berti:sa="5.690243975064466" berti:da="0.611353452585492" berti:type="carc"/><path d="M-230.96383480559953,502.4032906999384 A6.186001843723516,6.186001843723516, 0, 0,1, -230.82292918819655,506.98813519898096" berti:cx="-236.63579524156606"  berti:cy="504.8721940239633" berti:r="6.186001843723516" berti:sa="5.872637892144127" berti:da="0.7596483490764507" berti:type="carc"/><path d="M-224.45369394272632,503.0579526959255 A6.186001843723505,6.186001843723505, 0, 0,1, -225.31615348496953,507.9826752791824" berti:cx="-230.4584937040888"  berti:cy="504.54422273750333" berti:r="6.186001843723505" berti:sa="6.0405480824992415" berti:da="0.8320152438301065" berti:type="carc"/><path d="M-218.23660518049178,505.3841872323642 A6.186001843723515,6.186001843723515, 0, 0,1, -220.39668092990175,510.53639049994325" berti:cx="-224.406793002337"  berti:cy="505.8262291463313" berti:r="6.186001843723515" berti:sa="6.2116659328861115" berti:da="0.937024110722489" berti:type="carc"/><line x1="-232.3015488045418" y1="528.168840511262" x2="-278.3325982149434" y2="431.8322067321046"/><line x1="-232.3015488045418" y1="528.168840511262" x2="-252.2675118665104" y2="420.8514578954971"/><line x1="-232.3015488045418" y1="528.168840511262" x2="-223.77521558902683" y2="418.8767400316103"/><line x1="-232.3015488045418" y1="528.168840511262" x2="-195.82276448797575" y2="424.9317903136428"/><line x1="-232.3015488045418" y1="528.168840511262" x2="-171.53783833573496" y2="439.6275376440568"/><line x1="-277.3818591460415" y1="433.82197239405457" x2="-214.8301270244185" y2="380.32378044792995"/><line x1="-251.42701901899557" y1="425.36912089139724" x2="-207.59730566157978" y2="387.8831818357129"/><line x1="-224.16880958543493" y1="423.92189995162687" x2="-197.6984958677546" y2="401.2828158509792"/><line x1="-197.46483204578942" y1="429.5789356083643" x2="-183.3151280796048" y2="417.4772151109697"/><line x1="-173.13491940803573" y1="441.95471019219565" x2="-168.7013353916727" y2="438.16282912556926"/><path d="M-87.47366764356906,540.8024103665056 A145.37786024310634,145.37786024310634, 0, 0,0, -87.00835852760667,533.1297988878752" berti:cx="-232.3015488045418"  berti:cy="528.168840511262" berti:r="145.37786024310634" berti:sa="0.08701136016713792" berti:da="-0.052880154069145036" berti:type="carc"/><path d="M-94.109905123646,534.2360072196097 A138.32476602219342,138.32476602219342, 0, 0,0, -94.07921242008567,522.8465647276513" berti:cx="-232.3015488045418"  berti:cy="528.168840511262" berti:r="138.32476602219342" berti:sa="0.043875829027945006" berti:da="-0.08236199490355389" berti:type="carc"/><path d="M-104.34004008712208,523.0500717421497 A128.06384933676608,128.06384933676608, 0, 0,0, -105.65654742815742,509.15849771252425" berti:cx="-232.3015488045418"  berti:cy="528.168840511262" berti:r="128.06384933676608" berti:sa="6.2432042136474895" berti:da="-0.10901381897365958" berti:type="carc"/><path d="M-116.92815373278579,509.3025290277973 A116.90576546678358,116.90576546678358, 0, 0,0, -121.8961443671462,489.7292168087631" berti:cx="-232.3015488045418"  berti:cy="528.168840511262" berti:r="116.90576546678358" berti:sa="6.121095972953481" berti:da="-0.17295244092968876" berti:type="carc"/><path d="M-130.8925783084358,490.99092745836646 A108.00915014964595,108.00915014964595, 0, 0,0, -140.71150709540854,470.9216503988382" berti:cx="-232.3015488045418"  berti:cy="528.168840511262" berti:r="108.00915014964595" berti:sa="5.931787245514855" berti:da="-0.20722805792366472" berti:type="carc"/><line x1="-218.48433269327006" y1="383.44908792786873" x2="1087.7530584916205" y2="-928.9730358698337"/><line x1="-211.69480033514168" y1="391.3876180696804" x2="1087.7530584916205" y2="-928.9730358698337"/><line x1="-200.89421405233728" y1="404.0159958772671" x2="1087.7530584916205" y2="-928.9730358698337"/><line x1="-186.81861548726522" y1="420.47361881488973" x2="1087.7530584916205" y2="-928.9730358698337"/><line x1="-170.42723389156123" y1="439.6389265267897" x2="1087.7530584916205" y2="-928.9730358698337"/><line x1="-152.83711266205364" y1="460.2058375028295" x2="1087.7530584916205" y2="-928.9730358698337"/><line x1="-135.24699300045978" y1="480.7727466456161" x2="1087.7530584916205" y2="-928.9730358698337"/><line x1="-118.8556114047563" y1="499.93805435751557" x2="1087.7530584916205" y2="-928.9730358698337"/><line x1="-104.78001283968439" y1="516.3956772951382" x2="1087.7530584916205" y2="-928.9730358698337"/><line x1="-93.97942655687996" y1="529.0240551027248" x2="1087.7530584916205" y2="-928.9730358698337"/><line x1="-87.18989419875149" y1="536.9625852445366" x2="1087.7530584916205" y2="-928.9730358698337"/></g><g title="Plan" stroke="#cfd5ff" display="none"><line x1="96.70083609079045" y1="312.2588354593902" x2="-41.51968200187437" y2="201.30186832909916"/><line x1="-41.51968200187437" y1="201.30186832909916" x2="69.69573162749576" y2="89.98775750548357"/><line x1="69.69573162749576" y1="89.98775750548357" x2="205.61486536222094" y2="175.85072162751683"/><line x1="205.61486536222094" y1="175.85072162751683" x2="96.70083609079045" y2="312.2588354593902"/><ellipse cx="82.61927260544118" cy="194.8098312448357" rx="88.17506021720854" ry="78.59275011106133" transform="rotate(-1.76957, 82.6193, 194.81)" berti:cx="82.61927260544118"  berti:cy="194.8098312448357" berti:rx="88.17506021720854" berti:ry="78.59275011106133" berti:xrot="-0.030884748027766414" berti:a="4.185466517533981e-14" berti:b="3.3413508189608935e-16" berti:c="5.265967522743671e-14" berti:d="-3.5230947908480224e-12" berti:f="-1.0286228441883015e-11" berti:g="1.9696008381542357e-9"/><line x1="81.67848844102107" y1="188.61430706843416" x2="3.770223936720016" y2="160.14220726090662"/><line x1="81.67848844102107" y1="188.61430706843416" x2="-3.9034172051806593" y2="180.2521233679664"/><line x1="81.67848844102107" y1="188.61430706843416" x2="-5.264617757240683" y2="201.6548752645808"/><line x1="81.67848844102107" y1="188.61430706843416" x2="-0.027156548803700283" y2="222.70905638639707"/><line x1="81.67848844102107" y1="188.61430706843416" x2="11.511874419561135" y2="241.730851213731"/><line x1="81.67848844102107" y1="188.61430706843416" x2="28.31228572493793" y2="257.35970586746566"/><line x1="81.67848844102107" y1="188.61430706843416" x2="49.46805495751973" y2="267.85267398641486"/><line x1="81.67848844102107" y1="188.61430706843416" x2="72.79116969513147" y2="272.98277237406967"/><line x1="81.67848844102107" y1="188.61430706843416" x2="96.59329956844607" y2="272.32807664052575"/><line x1="81.67848844102107" y1="188.61430706843416" x2="119.09557553320516" y2="266.1365258718044"/><line x1="81.67848844102107" y1="188.61430706843416" x2="138.74654971175593" y2="255.06951079532655"/><line x1="81.67848844102097" y1="188.61430706843413" x2="34.532178292302035" y2="129.23460215024687"/><line x1="81.67848844102097" y1="188.61430706843413" x2="55.08359666063774" y2="120.31579604804551"/><line x1="81.67848844102097" y1="188.61430706843413" x2="77.15919867901889" y2="116.39489326238976"/><line x1="81.67848844102097" y1="188.61430706843413" x2="99.31943557339173" y2="117.52632784268621"/><line x1="81.67848844102097" y1="188.61430706843413" x2="120.22275752070158" y2="123.47831145005017"/><line x1="81.67848844102097" y1="188.61430706843413" x2="138.67112025953662" y2="133.78290750953045"/><line x1="81.67848844102097" y1="188.61430706843413" x2="153.63579176530675" y2="147.77906690864108"/><line x1="81.67848844102097" y1="188.61430706843413" x2="164.27387166628137" y2="164.64553705338716"/><line x1="81.67848844102097" y1="188.61430706843413" x2="169.9446656476822" y2="183.42507499841508"/><line x1="81.67848844102097" y1="188.61430706843413" x2="170.2325264551066" y2="203.04481380612577"/><line x1="81.67848844102097" y1="188.61430706843413" x2="164.97919044355473" y2="222.33995367377872"/><line x1="16.968082335586303" y1="142.76219951141036" x2="154.32417745810497" y2="240.08914932082595"/></g><g title="Core Plan" stroke="#7788ff" display="none"><line x1="87.90490162152551" y1="239.86208399513342" x2="138.14644105001761" y2="181.1290900333994"/><line x1="138.14644105001761" y1="181.1290900333994" x2="75.68194712121738" y2="139.25853786711423"/><line x1="75.68194712121738" y1="139.25853786711423" x2="24.96516704257636" y2="192.78962396334552"/><line x1="24.96516704257636" y1="192.78962396334552" x2="87.90490162152551" y2="239.86208399513342"/><ellipse cx="81.67445625633098" cy="188.25810504200393" rx="40.27931038581233" ry="35.75432544634723" transform="rotate(-1.97304, 81.6745, 188.258)" berti:cx="81.67445625633098"  berti:cy="188.25810504200393" berti:rx="40.27931038581233" berti:ry="35.75432544634723" berti:xrot="-0.03443596849106643" berti:a="4.644850431784472e-12" berti:b="4.2999938912037325e-14" berti:c="5.891568077734121e-12" berti:d="-3.87460720424483e-10" berti:f="-1.1126474386698835e-9" berti:g="2.3357703393616243e-7"/></g><g title="Core Tiers" stroke="#ffc0a1" display="none"><line x1="139.11391837559688" y1="14.142675328136223" x2="138.14644105001761" y2="181.1290900333994"/><line x1="60.537846200945836" y1="-29.666591768929244" x2="75.68194712121736" y2="139.25853786711423"/><line x1="73.99640768434152" y1="74.07084043594215" x2="87.9049016215255" y2="239.86208399513342"/><line x1="-6.099398993649204" y1="21.769927961731923" x2="24.9651670425763" y2="192.78962396334558"/><line x1="99.58934725675948" y1="-13.991879367981085" x2="107.11834986411655" y2="160.34029287642954"/><line x1="70.80969421805462" y1="123.17830644161144" x2="142.13119449119452" y2="170.20728100264043"/><line x1="70.13648698281267" y1="109.99539893717613" x2="142.4349409771802" y2="156.88358084295453"/><line x1="69.09064049740354" y1="96.67870694315006" x2="142.56994348413318" y2="143.54049373298824"/><line x1="67.96434738162228" y1="83.42232976635796" x2="142.19347295618965" y2="129.96760718268098"/><line x1="66.14328195239413" y1="69.84899592056148" x2="143.88234549393948" y2="117.76867861351599"/><line x1="64.62418994780737" y1="56.583440675683676" x2="142.3054148843067" y2="103.64731798217241"/><line x1="62.54921870398549" y1="43.10412780949555" x2="141.8199709303432" y2="90.29988569348095"/><line x1="63.31946551589851" y1="31.41672166104557" x2="141.77670323108254" y2="77.31118191478944"/><line x1="61.82682051200833" y1="18.496416144797962" x2="142.39912732026258" y2="64.79489468768836"/><line x1="60.306365004074486" y1="5.67360995278284" x2="142.59595486855213" y2="52.11372217151089"/><line x1="58.87143079085952" y1="-6.989200907551549" x2="142.70701655283574" y2="39.46823493319761"/><line x1="58.63492347658229" y1="-18.89032257830206" x2="142.35836714254958" y2="26.656758433109303"/><line x1="1087.7530584916246" y1="-928.973035869841" x2="-6.890137303294925" y2="43.65145937521673"/><line x1="1087.7530584916246" y1="-928.973035869841" x2="-4.980643781855445" y2="56.24755391278429"/><line x1="1087.7530584916246" y1="-928.973035869841" x2="-1.3035052500408146" y2="67.33323153636846"/><line x1="1087.7530584916246" y1="-928.973035869841" x2="-0.9397975134820534" y2="81.55563495274859"/><line x1="1087.7530584916246" y1="-928.973035869841" x2="2.5475831873276418" y2="92.98819512054317"/><line x1="1087.7530584916246" y1="-928.973035869841" x2="3.196526694076171" y2="107.20150502022982"/><line x1="1087.7530584916246" y1="-928.973035869841" x2="5.203549531462842" y2="120.24710987741005"/><line x1="1087.7530584916246" y1="-928.973035869841" x2="9.384992856634963" y2="131.2679563370162"/><line x1="1087.7530584916246" y1="-928.973035869841" x2="11.329662698597597" y2="144.57315562416906"/><line x1="1087.7530584916246" y1="-928.973035869841" x2="12.311278005510957" y2="158.9710441744668"/><line x1="1087.7530584916246" y1="-928.973035869841" x2="14.708817936586968" y2="172.0644050224656"/><line x1="1087.7530584916246" y1="-928.973035869841" x2="17.667270101197612" y2="184.683491408025"/><line x1="1087.7530584916246" y1="-928.973035869841" x2="73.59079250444732" y2="90.67294687004937"/><line x1="1087.7530584916246" y1="-928.973035869841" x2="74.45237799968596" y2="103.12631886428262"/><line x1="1087.7530584916246" y1="-928.973035869841" x2="75.42010078971623" y2="115.53495390655478"/><line x1="1087.7530584916246" y1="-928.973035869841" x2="76.43946596544272" y2="127.95220435314833"/><line x1="1087.7530584916246" y1="-928.973035869841" x2="77.66948853420854" y2="140.20829535762965"/><line x1="1087.7530584916246" y1="-928.973035869841" x2="78.03820122011234" y2="153.44446577588457"/><line x1="1087.7530584916246" y1="-928.973035869841" x2="79.29848015845361" y2="165.79348356474532"/><line x1="1087.7530584916246" y1="-928.973035869841" x2="80.38848480728232" y2="178.38682179586445"/><line x1="1087.7530584916246" y1="-928.973035869841" x2="80.86480845219367" y2="191.72561343516247"/><line x1="1087.7530584916246" y1="-928.973035869841" x2="82.75397025274123" y2="203.55233688882043"/><line x1="1087.7530584916246" y1="-928.973035869841" x2="84.63171080031246" y2="229.5254638147809"/><line x1="1087.7530584916246" y1="-928.973035869841" x2="84.1891904982911" y2="215.93836689270884"/></g><g title="VL's Center" stroke="#cbd3f2" display="none"><line x1="81.67848844102093" y1="188.6143070684341" x2="136.17675629930702" y2="128.07548004349763"/><line x1="78.48260510543494" y1="177.4813383690188" x2="136.59339899852876" y2="113.77498307269111"/><line x1="1087.7530584916205" y1="-928.9730358698337" x2="76.33269538712655" y2="165.2589862824567"/><line x1="1087.7530584916205" y1="-928.9730358698337" x2="74.68974406963973" y2="152.5669398833076"/><line x1="1087.7530584916205" y1="-928.9730358698337" x2="73.31192869035772" y2="139.68049370192358"/><line x1="1087.7530584916205" y1="-928.9730358698337" x2="72.6785371917397" y2="126.1114704619297"/><line x1="1087.7530584916205" y1="-928.9730358698337" x2="70.21720366319329" y2="114.52768203497479"/><line x1="1087.7530584916205" y1="-928.9730358698337" x2="70.36957802753041" y2="100.35829508602616"/><line x1="1087.7530584916205" y1="-928.9730358698337" x2="66.38374061294085" y2="90.448602117253"/><line x1="1087.7530584916205" y1="-928.9730358698337" x2="65.32699811344531" y2="77.6707020632113"/><line x1="1087.7530584916205" y1="-928.9730358698337" x2="62.695642802451104" y2="66.51601483224348"/><line x1="1087.7530584916205" y1="-928.9730358698337" x2="64.42685558375747" y2="51.23350434239692"/><line x1="1087.7530584916205" y1="-928.9730358698337" x2="62.96900115078758" y2="39.128869126649775"/><line x1="1087.7530584916205" y1="-928.9730358698337" x2="63.045554737108475" y2="39.05654981974683"/><line x1="1087.7530584916205" y1="-928.9730358698337" x2="62.58565754616679" y2="26.102927548397567"/><line x1="1087.7530584916205" y1="-928.9730358698337" x2="61.24604295167286" y2="14.062015785849852"/><line x1="1087.7530584916205" y1="-928.9730358698337" x2="61.45104808826178" y2="13.873680950679613"/><line x1="1087.7530584916205" y1="-928.9730358698337" x2="59.819869032036905" y2="2.18010416121367"/><line x1="1087.7530584916205" y1="-928.9730358698337" x2="56.743152360194856" y2="-8.150318205510082"/><line x1="1087.7530584916205" y1="-928.9730358698337" x2="57.254631720336505" y2="-21.605484968796375"/></g><g title="Scaffolding" stroke="#1600e6" display="none"><line x1="36.076367188457034" y1="-335.16818249209064" x2="81.67848844102093" y2="188.61430706843413"/><line x1="134.58249419055002" y1="796.2656855151043" x2="-121.07361066661699" y2="-285.0990760709265"/><line x1="134.58249419055002" y1="796.2656855151043" x2="200.28516757745825" y2="-292.45418494053393"/></g><g title="Scaffolding Tiers" stroke="#ffc39c" display="none"><line x1="239.8441149103332" y1="-123.11633060515153" x2="205.61486536222102" y2="175.85072162751683"/><line x1="48.11499426199225" y1="-144.91375197599237" x2="69.69573162749569" y2="89.98775750548357"/><line x1="-1103.1392654927058" y1="-650.9166796530102" x2="213.0073589546579" y2="165.7820525874227"/><line x1="61.95274475031914" y1="-131.7110190506606" x2="96.70083609079043" y2="312.2588354593902"/><line x1="-138.48354255180269" y1="-126.29197434346281" x2="-41.51968200187433" y2="201.30186832909914"/><line x1="-1103.1392654927058" y1="-650.9166796530102" x2="216.13417679132195" y2="153.08352936364423"/><line x1="-1103.1392654927058" y1="-650.9166796530102" x2="216.1164037230035" y2="138.56716285401353"/><line x1="-1103.1392654927058" y1="-650.9166796530102" x2="218.93172418032813" y2="125.84697471359823"/><line x1="-1103.1392654927058" y1="-650.9166796530102" x2="219.24338189697457" y2="111.75150488964454"/><line x1="-1103.1392654927058" y1="-650.9166796530102" x2="220.60047905901504" y2="98.36912672899979"/><line x1="-1103.1392654927058" y1="-650.9166796530102" x2="223.25170481611357" y2="85.80308389813831"/><line x1="-1103.1392654927058" y1="-650.9166796530102" x2="225.31110489014247" y2="72.9835726118194"/><line x1="-1103.1392654927058" y1="-650.9166796530102" x2="228.07395856696857" y2="60.62050406897413"/><line x1="-1103.1392654927058" y1="-650.9166796530102" x2="228.7637701945886" y2="47.235649321929145"/><line x1="-1103.1392654927058" y1="-650.9166796530102" x2="231.8195961390825" y2="35.17322464431351"/><line x1="-1103.1392654927058" y1="-650.9166796530102" x2="234.4635155859344" y2="22.9603156138557"/><line x1="-1103.1392654927058" y1="-650.9166796530102" x2="237.02390209087395" y2="10.770737454786229"/><line x1="1087.7530584916246" y1="-928.973035869841" x2="-104.66926638348373" y2="50.95928704369682"/><line x1="1087.7530584916246" y1="-928.973035869841" x2="-97.94423005740961" y2="60.50628120981652"/><line x1="1087.7530584916246" y1="-928.973035869841" x2="-95.1758453186599" y2="73.429134749103"/><line x1="1087.7530584916246" y1="-928.973035869841" x2="-90.49517623020655" y2="84.83330463368856"/><line x1="1087.7530584916246" y1="-928.973035869841" x2="-86.7509038218332" y2="97.13421822433429"/><line x1="1087.7530584916246" y1="-928.973035869841" x2="-82.6906955240226" y2="109.26017834449863"/><line x1="1087.7530584916246" y1="-928.973035869841" x2="-79.24713654157719" y2="122.04031995241412"/><line x1="1087.7530584916246" y1="-928.973035869841" x2="-75.50881066000647" y2="134.66869954454614"/><line x1="1087.7530584916246" y1="-928.973035869841" x2="-68.97505522201172" y2="144.81401577245936"/><line x1="1087.7530584916246" y1="-928.973035869841" x2="-64.64759488719886" y2="157.07382530881577"/><line x1="1087.7530584916246" y1="-928.973035869841" x2="-61.709228638589984" y2="170.76176613362315"/><line x1="1087.7530584916246" y1="-928.973035869841" x2="-57.24081152222759" y2="183.10513939806867"/><line x1="1087.7530584916246" y1="-928.973035869841" x2="-52.81447661090669" y2="195.58941106762822"/><line x1="1087.7530584916246" y1="-928.973035869841" x2="75.41070143877846" y2="167.0843229107714"/><line x1="1087.7530584916246" y1="-928.973035869841" x2="77.91989925747036" y2="177.3011792159121"/><line x1="1087.7530584916246" y1="-928.973035869841" x2="79.26514871496936" y2="188.78499758145654"/><line x1="1087.7530584916246" y1="-928.973035869841" x2="78.59052301838818" y2="202.54037494050675"/><line x1="1087.7530584916246" y1="-928.973035869841" x2="80.54679606235167" y2="213.3709277636822"/><line x1="1087.7530584916246" y1="-928.973035869841" x2="81.35188328002562" y2="225.5131461151616"/><line x1="1087.7530584916246" y1="-928.973035869841" x2="80.9084826236065" y2="239.1248171616088"/><line x1="1087.7530584916246" y1="-928.973035869841" x2="80.35303730503266" y2="266.116464006548"/><line x1="1087.7530584916246" y1="-928.973035869841" x2="81.62583464508661" y2="251.4283903166915"/><line x1="1087.7530584916246" y1="-928.973035869841" x2="85.51526618109064" y2="286.37415643975334"/><line x1="1087.7530584916246" y1="-928.973035869841" x2="84.85533849339139" y2="273.9535711142144"/><line x1="1087.7530584916246" y1="-928.973035869841" x2="88.84802332530616" y2="295.5435816796296"/><line x1="1087.7530584916246" y1="-928.973035869841" x2="89.71702239240983" y2="307.72046398527226"/></g><g title="Q1" stroke="#7788ff" display="none"><line x1="187.60363690927795" y1="-86.01257637249142" x2="170.23252645510692" y2="203.04481380612583"/><line x1="170.23252645510684" y1="203.04481380612702" x2="-3461.014085373952" y2="-388.6925013221662"/><line x1="179.94627746169795" y1="-60.25642781853131" x2="164.97919044355547" y2="222.33995367377904"/><line x1="164.97919044355547" y1="222.33995367377904" x2="-1965.1382382752056" y2="-640.0727979818948"/><line x1="164.10179840909203" y1="-35.37284037069957" x2="154.32417745810497" y2="240.08914932082592"/><line x1="154.324177458105" y1="240.08914932082592" x2="-1122.1728484669775" y2="-664.4033805757322"/><line x1="138.74654971175607" y1="255.0695107953267" x2="-720.9917458925831" y2="-746.0873940301134"/><line x1="140.77448539933326" y1="-8.498309351458618" x2="138.7465497117561" y2="255.0695107953267"/><line x1="111.8441060595206" y1="17.913137906873423" x2="119.09557553320516" y2="266.13652587180434"/><line x1="79.73000445897307" y1="39.7536668565697" x2="96.51604138521401" y2="271.2625508195318"/><line x1="96.59329956844606" y1="272.32807664052564" x2="-98.89531608834513" y2="-824.9093462972642"/><line x1="173.54516123126731" y1="190.05395199822146" x2="169.11191244779084" y2="189.34862790475313"/><line x1="163.86084299348406" y1="195.02770452392963" x2="168.53684534369003" y2="196.85624273260032"/><line x1="154.07962221400427" y1="200.16447257910022" x2="158.05346180894188" y2="202.85458486926342"/><line x1="136.08167677573212" y1="200.75174795138403" x2="141.52798181569264" y2="206.754145782441"/><line x1="118.59531915155172" y1="205.90883341917788" x2="116.05265835940922" y2="200.9498080142838"/><line x1="90.52385175527748" y1="194.14457373454923" x2="92.03395180029396" y2="202.25301419322355"/><line x1="162.5183103842483" y1="207.88509229710547" x2="168.5569159346368" y2="210.28807812058642"/><line x1="152.73185990779726" y1="212.4228423886259" x2="157.9804764741587" y2="216.03096588643882"/><line x1="136.45260309106305" y1="213.89548905610297" x2="140.94245066639473" y2="218.91338912816065"/><line x1="116.4192307939446" y1="213.40879319903698" x2="118.99980920157616" y2="218.50426425839777"/><line x1="91.35775133404606" y1="206.13258939150884" x2="92.73792079225602" y2="213.60027998891076"/><line x1="119.09557553320515" y1="266.13652587180434" x2="-387.1964805530592" y2="-782.8196222545951"/><line x1="171.18911892118948" y1="189.67910874270143" x2="80.51521253137007" y2="175.25300861856314"/><line x1="166.37367956918973" y1="196.01034254390854" x2="79.35995947961742" y2="161.98386010312248"/><line x1="155.70232641802227" y1="201.2629710006493" x2="78.2126465731635" y2="148.80591149149808"/><line x1="139.13855814524638" y1="204.12075096673914" x2="77.07319223248706" y2="135.71822576752535"/><line x1="117.2600359561888" y1="203.30459170947137" x2="75.9415159918274" y2="122.71987870760906"/><line x1="91.17982906893627" y1="197.66682579168722" x2="74.8175384802262" y2="109.80995866297043"/></g><g title="Q2" stroke="#7788ff" display="none"><line x1="41.4224030032216" y1="7.334807223215003" x2="72.7911696951315" y2="272.98277237406944"/><line x1="72.7911696951315" y1="272.98277237406944" x2="193.17836068539125" y2="-869.8683885570426"/><line x1="4.0458670610157155" y1="-14.140314663851653" x2="49.46805495751978" y2="267.8526739864148"/><line x1="49.468054957519726" y1="267.85267398641486" x2="521.6105807158426" y2="-893.6282080632827"/><line x1="-30.50937487897155" y1="-40.93033317492833" x2="28.312285724937972" y2="257.35970586746566"/><line x1="28.456729348071782" y1="257.17363614597656" x2="960.1126565746223" y2="-942.9690571876972"/><line x1="-57.28891019686631" y1="-68.2735330013616" x2="11.511874419561327" y2="241.73085121373092"/><line x1="11.511874419561224" y1="241.73085121373094" x2="1729.1659701542787" y2="-1058.5435153751919"/><line x1="-77.27950306718466" y1="-106.45453045895334" x2="-0.02715654880352254" y2="222.70905638639698"/><line x1="-0.02715654880367424" y1="222.70905638639704" x2="3652.5010775518886" y2="-1301.445541915271"/><line x1="-84.8994680232828" y1="-136.9416261672704" x2="-5.264617757240769" y2="201.65487526458082"/><line x1="63.134325452611776" y1="181.7419470908912" x2="61.74306194460537" y2="192.90095953765606"/><line x1="36.11297746283144" y1="163.32559415965386" x2="31.256308087465822" y2="173.85305097364883"/><line x1="9.717553093489476" y1="141.8580987036081" x2="1.8777323306612441" y2="150.77449257265567"/><line x1="-10.763389549989755" y1="113.39137981383318" x2="-21.813340879379638" y2="120.79173358914642"/><line x1="64.58747691749306" y1="193.84233247353689" x2="63.355870426934864" y2="203.95906699829536"/><line x1="36.92746237913906" y1="177.98727929881017" x2="33.13904983954859" y2="186.3318344973923"/><line x1="12.002974764755459" y1="154.13916056788486" x2="3.9173908295487907" y2="163.46554553243735"/><line x1="-7.446562016341915" y1="125.13160912115092" x2="-18.364445651245337" y2="132.53533112769102"/><line x1="-1103.1392654927058" y1="-650.9166796530102" x2="56793.292375424826" y2="-7998.822664714826"/><line x1="-4.978494681082369" y1="201.61195975752923" x2="46643.64269252541" y2="-6795.199546617456"/><line x1="-32.098581671902025" y1="61.42591668879297" x2="-42.234012634426364" y2="62.912135284619865"/><line x1="-34.6020979985049" y1="49.20683110222666" x2="-44.31481423359787" y2="50.6282226169518"/></g><g title="Cleanup" stroke="#000000"><path d="M170.65827052591888,198.47548134579372 A88.17506021720854,78.59275011106133, -1.7695657133160088, 0,1, -3.6572353836281857,211.54437680152577" berti:cx="82.61927260544118"  berti:cy="194.8098312448357" berti:rx="88.17506021720854" berti:ry="78.59275011106133" berti:xrot="-0.030884748027766414" berti:a="4.185466517533981e-14" berti:b="3.3413508189608935e-16" berti:c="5.265967522743671e-14" berti:d="-3.5230947908480224e-12" berti:f="-1.0286228441883015e-11" berti:g="1.9696008381542357e-9" berti:sa="0.04161262754915172" berti:da="2.9083948916078675" berti:type="earc"/><line x1="170.23252645510686" y1="203.04481380612702" x2="171.18911892118945" y2="189.67910874270137"/><line x1="165.6781633276501" y1="209.14251535014634" x2="166.37367956918976" y2="196.0103425439085"/><line x1="155.2448825016136" y1="214.15040159525506" x2="155.7023264180222" y2="201.2629710006502"/><line x1="139.0410910201892" y1="216.78840992883954" x2="139.13855814524638" y2="204.12075096673914"/><line x1="117.62475347178383" y1="215.7891533144929" x2="117.26003595618882" y2="203.30459170947137"/><line x1="92.07507255878005" y1="210.01380334925736" x2="91.17982906893627" y2="197.66682579168722"/><line x1="171.18911892118948" y1="189.67910874270143" x2="135.77481847308715" y2="184.04473977778383"/><line x1="166.37367956918973" y1="196.01034254390854" x2="122.73497645637975" y2="178.94554444450338"/><line x1="64.00801463175365" y1="198.60218568710548" x2="62.560538598432565" y2="186.3441627105266"/><line x1="35.499547971973406" y1="181.13247810303866" x2="33.53233154255062" y2="168.9194767936603"/><line x1="8.707229364389" y1="157.94066588837663" x2="6.301863472720729" y2="145.74283470900178"/><line x1="-13.460469415784392" y1="129.20980779476596" x2="-16.167845306917872" y2="117.01084232295037"/><line x1="-29.57071684435997" y1="96.82725844316701" x2="-32.432415111210425" y2="84.63388298677894"/><path d="M155.24488250161374,214.15040159525515 A92.0552465369673,79.86039466470422, -2.628360293180232, 0,0, 166.37367956918985,196.0103425439085" berti:cx="80.36947200853837"  berti:cy="168.55297604034973" berti:rx="92.0552465369673" berti:ry="79.86039466470422" berti:xrot="-0.04587354104467851" berti:a="3.4136670247343266e-14" berti:b="5.136920859960596e-16" berti:c="4.530323654752663e-14" berti:d="-2.8301304937715708e-12" berti:f="-7.677280506072023e-12" berti:g="1.2324045108059376e-9" berti:sa="0.5469943232793755" berti:da="-0.23796633943834156" berti:type="earc"/><path d="M165.67816332765014,209.14251535014614 A90.12097680092269,79.25224852565326, -2.241799038659092, 0,0, 171.03587498893492,189.66536898653092" berti:cx="81.4903499874538"  berti:cy="181.63677260705487" berti:rx="90.12097680092269" berti:ry="79.25224852565326" berti:xrot="-0.039126774392644795" berti:a="3.772676139443211e-14" berti:b="4.3200206309203285e-16" berti:c="4.874530060182879e-14" berti:d="-3.152834450425059e-12" berti:f="-8.889143080393581e-12" berti:g="1.565249343900987e-9" berti:sa="0.3157857235584441" berti:da="-0.22636544138066572" berti:type="earc"/><path d="M139.04109102018924,216.78840992883985 A93.97777108583242,80.41839054312503, -2.9509475347854948, 0,0, 155.7023264180228,201.2629710006496" berti:cx="79.2565330284489"  berti:cy="155.55729970868464" berti:rx="93.97777108583242" berti:ry="80.41839054312503" berti:xrot="-0.051503750535616774" berti:a="3.1001582207318944e-14" berti:b="5.8223697410434865e-16" berti:c="4.226631974578858e-14" berti:d="-2.5476491356307756e-12" berti:f="-6.620980652247215e-12" berti:g="9.583243482533918e-10" berti:sa="0.7973510233789466" berti:da="-0.25848929593103076" berti:type="earc"/><path d="M117.62475347178396,215.78915331449363 A95.88852402064475,80.92734349250877, -3.224533832831722, 0,0, 139.13855814524683,204.12075096673954" berti:cx="78.15142942237772"  berti:cy="142.6486233450833" berti:rx="95.88852402064475" berti:ry="80.92734349250877" berti:xrot="-0.05627873222486597" berti:a="2.8253239756145474e-14" berti:b="6.400840551558812e-16" berti:c="3.957863089679618e-14" berti:d="-2.299338182049044e-12" berti:f="-5.69586069517206e-12" berti:g="7.327573275748133e-10" berti:sa="1.0759019269645764" berti:da="-0.28654329232573517" berti:type="earc"/><path d="M92.07507255878006,210.01380334925722 A97.78752415317066,81.38829340312867, -3.459776820631633, 0,0, 117.26003595618882,203.30459170947097" berti:cx="77.05405953160697"  berti:cy="129.8258477252565" berti:rx="97.78752415317066" berti:ry="81.38829340312867" berti:xrot="-0.06038449690420327" berti:a="2.5835091332066745e-14" berti:b="6.892189190607439e-16" berti:c="3.719338533965241e-14" berti:d="-2.0801770959409206e-12" berti:f="-4.881769897112118e-12" berti:g="5.474189845102025e-10" berti:sa="1.3856197972654378" berti:da="-0.3154977512123498" berti:type="earc"/><path d="M64.0080146317535,198.60218568710695 A99.67481961166924,81.80222919736877, -3.6644645628827837, 0,0, 91.17982906893647,197.6668257916875" berti:cx="75.96432361558385"  berti:cy="117.08789415637487" berti:rx="99.67481961166924" berti:ry="81.80222919736877" berti:xrot="-0.06395697194495936" berti:a="2.3700054755095566e-14" berti:b="7.312605805609957e-16" berti:c="3.507126123382341e-14" berti:d="-1.8859803905805917e-12" berti:f="-4.161969838665544e-12" berti:g="3.955871036060255e-10" berti:sa="1.7164352703737582" berti:da="-0.3322688467778061" berti:type="earc"/><path d="M35.49954797197278,181.13247810303983 A101.55047794919774,82.17009925643838, -3.8444180964658625, 0,0, 62.5605385984323,186.3441627105284" berti:cx="74.88212380542357"  berti:cy="104.43370398107497" berti:rx="101.55047794919774" berti:ry="82.17009925643838" berti:xrot="-0.06709775360658228" berti:a="2.1808748974635132e-14" berti:b="7.675356877204873e-16" berti:c="3.31790666649683e-14" berti:d="-1.7132420355663446e-12" berti:f="-3.522487528850618e-12" berti:g="2.7178679897871134e-10" berti:sa="2.0451623561858305" berti:da="-0.3250580189773089" berti:type="earc"/><path d="M8.637470772269054,157.5869136659233 A103.41457978631531,82.49281829703423, -4.004074252214264, 0,0, 33.53233154255053,168.91947679366064" berti:cx="73.80736405877421"  berti:cy="91.86223809597524" berti:rx="103.41457978631531" berti:ry="82.49281829703423" berti:xrot="-0.06988427919546875" berti:a="2.012808800742529e-14" berti:b="7.991367197967551e-16" berti:c="3.148867096899866e-14" berti:d="-1.5590116069962918e-12" berti:f="-2.9516019646907523e-12" berti:g="1.715441817603752e-10" berti:sa="2.3519561251761507" berti:da="-0.2995459394717406" berti:type="earc"/><path d="M-13.460469415785177,129.20980779476645 A105.26721460497097,82.77127208170269, -4.146873256174206, 0,0, 6.480454869711434,145.53971893819948" berti:cx="72.73995011598689"  berti:cy="79.3724764840908" berti:rx="105.26721460497097" berti:ry="82.77127208170269" berti:xrot="-0.07237659198313816" berti:a="1.86301567178241e-14" berti:b="8.269678794009076e-16" berti:c="2.997614330721366e-14" berti:d="-1.4207951588683901e-12" berti:f="-2.4394343320306975e-12" berti:g="9.11926766514132e-11" berti:sa="2.6173894294074236" berti:da="-0.2604983066554807" berti:type="earc"/><path d="M-29.57071684436028,96.8272584431672 A107.10847789524674,83.00632076171377, -4.275523227228724, 0,0, -16.167845306918487,117.01084232295072" berti:cx="71.67978945756087"  berti:cy="66.96341776084617" berti:rx="107.10847789524674" berti:ry="83.00632076171377" berti:xrot="-0.0746219575606349" berti:a="1.729130721252606e-14" berti:b="8.517814735864087e-16" berti:c="2.862105476958694e-14" berti:d="-1.2964754590965875e-12" berti:f="-1.977619163982434e-12" berti:g="2.771999094019997e-11" berti:sa="2.8547752668251274" berti:da="-0.2310300690656426" berti:type="earc"/><path d="M-32.432415111210695,84.63388298677908 A108.93846917765518,83.19880133027073, -4.392184818401652, 0,1, -38.04029246407387,62.29718512355443" berti:cx="70.62679126281019"  berti:cy="54.63407873309008" berti:rx="108.93846917765518" berti:ry="83.19880133027073" berti:xrot="-0.07665808643721804" berti:a="1.6091428898788605e-14" berti:b="8.742069050075572e-16" berti:c="2.740591024013654e-14" berti:d="-1.184247478832288e-12" berti:f="-1.5590390864120954e-12" berti:g="-2.135334965276004e-11" berti:sa="2.8583274003257335" berti:da="0.21286268829620525" berti:type="earc"/><line x1="-3.6572353836281764" y1="211.54437680152557" x2="-36.46411887801759" y2="72.77903118964844"/><path d="M24.10015714052115,63.47605987112166 A49.67825798599983,37.71757245005412, -4.465205245558966, 0,1, 20.29975534544364,53.74243651379758" berti:cx="69.3647627226722"  berti:cy="46.520349572120466" berti:rx="49.67825798599983" berti:ry="37.71757245005412" berti:xrot="-0.07793253331232587" berti:a="1.8113129255622667e-12" berti:b="1.0284467571355366e-13" berti:c="3.120271918552796e-12" berti:d="-1.3042566156396174e-10" berti:f="-1.5228993693930788e-10" berti:g="1.1681154362811866e-8" berti:sa="2.7831806760454745" berti:da="0.21226716313084903" berti:type="earc"/><path d="M25.96259399732054,75.83417110962783 A48.8516776679193,37.64406639639583, -4.3525168458439545, 0,0, 32.86614519813035,84.17188530532326" berti:cx="70.4460477106481"  berti:cy="58.97487130549572" berti:rx="48.8516776679193" berti:ry="37.64406639639583" berti:xrot="-0.07596574970849547" berti:a="1.9436297547437614e-12" berti:b="1.0022271629240077e-13" berti:c="3.252777289400807e-12" berti:d="-1.4283165622974583e-10" berti:f="-1.9889241628147702e-10" berti:g="1.7171338856671696e-8" berti:sa="2.7793183613965096" berti:da="-0.22837176194748032" berti:type="earc"/><path d="M43.871957536546695,103.01357258625552 A48.019562653436104,37.54954704348839, -4.228619775962552, 0,1, 34.64016700408966,96.59142200689124" berti:cx="71.53459936363616"  berti:cy="71.51222990710598" berti:rx="48.019562653436104" berti:ry="37.54954704348839" berti:xrot="-0.0738033379054915" berti:a="2.0913778990506175e-12" berti:b="9.738396695225266e-14" berti:c="3.401287202686021e-12" berti:d="-1.5657002476050453e-10" berti:f="-2.501999554789511e-10" berti:g="2.428667072233406e-8" berti:sa="2.2914029142997556" berti:da="0.25318031366747196" berti:type="earc"/><path d="M45.50521878566681,115.49571472411739 A47.18193119081432,37.43518439642448, -4.0913243707549025, 0,0, 56.23914050092455,119.69954185112151" berti:cx="72.63059525866304"  berti:cy="84.1344940015208" berti:rx="47.18193119081432" berti:ry="37.43518439642448" berti:xrot="-0.07140708103675825" berti:a="2.256593904679947e-12" berti:b="9.422719165215372e-14" berti:c="3.567188062639322e-12" berti:d="-1.7182551564481357e-10" berti:f="-3.0696733967767275e-10" berti:g="3.329785347372315e-8" berti:sa="2.2838965341730364" berti:da="-0.2812299353827008" berti:type="earc"/><path d="M57.69236161014478,132.24942841394983 A46.3387375243753,37.300568586331536, -3.9381016977392016, 0,0, 69.07449262727287,134.09719894904467" berti:cx="73.73411583518981"  berti:cy="96.842573056457" berti:rx="46.3387375243753" berti:ry="37.300568586331536" berti:xrot="-0.0687328409039276" berti:a="2.4418624734458004e-12" berti:b="9.067034071316308e-14" berti:c="3.752713180147987e-12" berti:d="-1.8882931956522413e-10" berti:f="-3.70107897713371e-10" berti:g="4.4535408040645345e-8" berti:sa="1.9961996355673604" berti:da="-0.30097444564420694" berti:type="earc"/><path d="M70.32364895112737,146.7239305346839 A45.48993838543435,37.1452782022591, -3.7657490981218102, 0,0, 81.60376955989783,146.24843890135836" berti:cx="74.8452427448814"  berti:cy="109.63739014754952" berti:rx="45.48993838543435" berti:ry="37.1452782022591" berti:xrot="-0.0657247205662326" berti:a="2.650233409427792e-12" berti:b="8.661494435092726e-14" berti:c="3.960478566361497e-12" berti:d="-2.0785359930562866e-10" berti:f="-4.4069925028646263e-10" berti:g="5.840154650600825e-8" berti:sa="1.6921176393549149" berti:da="-0.30386964836581143" berti:type="earc"/><path d="M93.21186515401669,156.29731599910428 A44.63549415935739,36.96887891530894, -3.5701505234018476, 0,1, 83.93396697554152,158.7603695274498" berti:cx="75.96405887527938"  berti:cy="122.5198822226651" berti:rx="44.63549415935739" berti:ry="36.96887891530894" berti:xrot="-0.0623108814251611" berti:a="2.8853198872664204e-12" berti:b="8.194217161222505e-14" berti:c="4.193558940144226e-12" berti:d="-2.2922015500532002e-10" berti:f="-5.200190073889941e-10" berti:g="7.538684498448187e-8" berti:sa="1.0986800978810964" berti:da="0.2556448605402273" berti:type="earc"/><path d="M103.22926812413088,164.54495729450247 A43.775370595936444,36.77092155387182, -3.345927142872501, 0,1, 98.75991706761086,167.0795122767737" berti:cx="77.09064837405248"  berti:cy="135.49100037263585" berti:rx="43.775370595936444" berti:ry="36.77092155387182" berti:xrot="-0.05839744517497186" berti:a="3.151420672398501e-12" berti:b="7.650786086157102e-14" berti:c="4.455581521036588e-12" berti:d="-2.5331118953909755e-10" berti:f="-6.095892381266082e-10" berti:g="9.609133688584486e-8" berti:sa="0.8381703030324619" berti:da="0.13136765593570698" berti:type="earc"/><path d="M111.38117964922023,171.25938506568355 A42.909541377951626,36.55093931494407, -3.0859150512941205, 0,1, 110.29381307947817,172.36101178301215" berti:cx="78.22509667382441"  berti:cy="148.5517101084238" berti:rx="42.909541377951626" berti:ry="36.55093931494407" berti:xrot="-0.053859378081932106" berti:a="3.4536729317222693e-12" berti:b="7.01362197421165e-14" berti:c="4.750842355329437e-12" berti:d="-2.8058275434697673e-10" berti:f="-7.112321689093835e-10" berti:g="1.2125132815672982e-7" berti:sa="0.6005006685330034" berti:da="0.038148555069926315" berti:type="earc"/><line x1="25.962593997320525" y1="75.83417110962779" x2="24.100157140521105" y2="63.47605987112166"/><line x1="34.640167004089676" y1="96.59142200689121" x2="32.866145198130354" y2="84.17188530532326"/><line x1="45.505218785666784" y1="115.49571472411742" x2="43.87195753654663" y2="103.01357258625552"/><line x1="57.69236161014473" y1="132.24942841394986" x2="56.23914050092455" y2="119.69954185112147"/><line x1="70.32364895112732" y1="146.7239305346839" x2="69.07449262727285" y2="134.0971989490447"/><line x1="155.70232641802227" y1="201.26297100064926" x2="111.38109586593795" y2="171.2594733317432"/><line x1="139.13855814524638" y1="204.12075096673914" x2="103.22926812413081" y2="164.54495729450247"/><line x1="117.2600359561888" y1="203.30459170947105" x2="93.21186515401668" y2="156.29731599910423"/><line x1="91.17982906893627" y1="197.6668257916874" x2="81.60376955989776" y2="146.2484389013583"/><line x1="62.56053859843257" y1="186.34416271052663" x2="69.07449262727285" y2="134.0971989490447"/><line x1="64.00801463175365" y1="198.60218568710545" x2="70.32364895112732" y2="146.7239305346839"/><line x1="35.499547971973406" y1="181.13247810303864" x2="57.69236161014473" y2="132.24942841394986"/><line x1="33.53233154255063" y1="168.91947679366032" x2="56.23914050092455" y2="119.69954185112147"/><line x1="8.882018337913006" y1="157.73905407311295" x2="45.505218785666784" y2="115.49571472411742"/><line x1="6.480454869711506" y1="145.53971893819954" x2="43.87195753654663" y2="103.01357258625552"/><line x1="-13.46046941578439" y1="129.20980779476596" x2="34.640167004089676" y2="96.59142200689121"/><line x1="-16.16784530691788" y1="117.0108423229504" x2="32.866145198130354" y2="84.17188530532326"/><line x1="-29.570716844359968" y1="96.82725844316701" x2="25.962593997320525" y2="75.83417110962779"/><line x1="-32.43241511121042" y1="84.63388298677894" x2="24.100157140521105" y2="63.47605987112166"/><line x1="-38.04029246407389" y1="62.2971851235544" x2="20.299755345443657" y2="53.742436513797564"/><line x1="1.7643677971939327" y1="-66.48041997244387" x2="20.273080691828255" y2="53.746543026122396"/><line x1="121.75455963790071" y1="178.28184595596016" x2="116.77958166711956" y2="-61.386978006858605"/></g></g>
</svg>
