<svg
	xmlns="http://www.w3.org/2000/svg" version="1.1"
	xmlns:xlink="http://www.w3.org/1999/xlink"
	xmlns:berti="http://www.albertidraw.com/alberti"
  fill="none">
<title>yinyang.svg</title>
<g xmlns="http://www.w3.org/2000/svg" id="workspace"><g title="Scratch" stroke="#7788ff" display="none"><line x1="-0.25" y1="523.5" x2="-0.25" y2="-534.5"/><line x1="-558.251" y1="-0.001" x2="587.749" y2="-0.001"/><path berti:type="carc" d="M-34.633607495387444,-421.5280037193384 A422.927,422.927, 0.08082619765985741,0,1, 37.598217815057, -421.2310555957801" berti:cx="-0.25"  berti:cy="-0.001" berti:r="422.927" berti:sa="4.631" berti:da="0.171"/><path berti:type="carc" d="M-34.55549492531076,421.5323680112756 A422.927,422.927, 0.028832839242946322,0,0, 38.51864377381991, 421.14533987361057" berti:cx="-0.25"  berti:cy="-0.001" berti:r="422.927" berti:sa="1.652" berti:da="-0.173"/><path berti:type="carc" d="M61.914257645895155,-217.31972053814133 A226.035,226.035, 0.08710938296703698,0,1, 136.2932403240399, -180.1336309884233" berti:cx="-0.25"  berti:cy="-0.001" berti:r="226.035" berti:sa="4.991" berti:da="0.37"/><path berti:type="carc" d="M-61.27856832130377,-217.64138015417075 A226.035,226.035, 0.07747516549602829,0,0, -139.26206217795823, -178.23530588422497" berti:cx="-0.25"  berti:cy="-0.001" berti:r="226.035" berti:sa="4.439" berti:da="-0.389"/><path berti:type="carc" d="M-137.61908417577388,-243.42436232736353 A226.035,226.035, 0.03881612256435389,0,0, -61.89091657875687, -205.46025841902267" berti:cx="-0.25"  berti:cy="-422.928" berti:r="226.035" berti:sa="2.224" berti:da="-0.377"/><path berti:type="carc" d="M63.040281201937276,-205.93454035114397 A226.035,226.035, 0.02246238747316702,0,0, 135.96613028537905, -242.54788170788711" berti:cx="-0.25"  berti:cy="-422.928" berti:r="226.035" berti:sa="1.287" berti:da="-0.363"/><line x1="-80.095" y1="-211.465" x2="79.595" y2="-211.465"/><path berti:type="carc" d="M-36.90176906864281,208.2624656394128 A211.464,211.464, 0.03045599544730105,0,0, 42.54789090963048, 207.08681670993437" berti:cx="-0.25"  berti:cy="-0.001" berti:r="211.464" berti:sa="1.745" berti:da="-0.378"/><path berti:type="carc" d="M-29.711717224631546,-276.66783520044083 A71.55,71.55, 0.07483971832551685,0,1, 33.58800338900299, -274.5077793378895" berti:cx="-0.25"  berti:cy="-211.465" berti:r="71.55" berti:sa="4.288" berti:da="0.917"/><path berti:type="carc" d="M35.53724038742038,-149.5079509623563 A71.55,71.55, 0.01827359726838063,0,1, -35.06685432808098, -148.95748721395813" berti:cx="-0.25"  berti:cy="-211.465" berti:r="71.55" berti:sa="1.047" berti:da="1.032"/><path berti:type="carc" d="M-32.55120201515527,147.61816828247123 A71.55,71.55, 0.07407177345463935,0,1, 33.65102923883343, 148.4530901812469" berti:cx="-0.25"  berti:cy="211.462" berti:r="71.55" berti:sa="4.244" berti:da="0.962"/><path berti:type="carc" d="M30.277509257402766,276.17269215005496 A71.55,71.55, 0.01972222054753592,0,1, -32.091634590099446, 275.5362757011781" berti:cx="-0.25"  berti:cy="211.462" berti:r="71.55" berti:sa="1.13" berti:da="0.902"/></g><g title="Cleanup" stroke="#000000"><path berti:type="carc" d="M-0.4145103030073026,-422.9279680043591 A422.927,422.927, 0.08223991435397279,1,1, -0.25776748807298844, 422.9259999286711" berti:cx="-0.25"  berti:cy="-0.001" berti:r="422.927" berti:sa="4.712" berti:da="3.142"/><path berti:type="carc" d="M-0.3361388970190707,422.9259912279074 A422.927,422.927, 0.027419122548830915,1,1, 0.00841667676451796, -422.9279210511683" berti:cx="-0.25"  berti:cy="-0.001" berti:r="422.927" berti:sa="1.571" berti:da="3.142"/><path berti:type="carc" d="M-0.33225534599383877,-422.92898400214176 A211.464,211.464, 0.08223991435397279,1,0, -0.08160556844144129, -0.0010670485025343623" berti:cx="-0.25"  berti:cy="-211.465" berti:r="211.464" berti:sa="4.712" berti:da="-3.142"/><path berti:type="carc" d="M-0.33225534599383877,-0.0019840021417394382 A211.464,211.464, 0.08223991435397279,1,1, -0.25388375321950696, 422.92599996433546" berti:cx="-0.25"  berti:cy="211.462" berti:r="211.464" berti:sa="4.712" berti:da="3.142"/><path berti:type="carc" d="M-0.27783154582273656,-283.0149945870372 A71.55,71.55, 0.08223991435397279,1,1, -0.25131408912559927, -139.9150000120673" berti:cx="-0.25"  berti:cy="-211.465" berti:r="71.55" berti:sa="4.712" berti:da="3.142"/><path berti:type="carc" d="M-0.2645728177243697,-139.91500148404626 A71.55,71.55, 0.027419122548830915,1,1, -0.20628154924490216, -283.0149866435841" berti:cx="-0.25"  berti:cy="-211.465" berti:r="71.55" berti:sa="1.571" berti:da="3.142"/><path berti:type="carc" d="M-0.27783154582273656,139.91200541296274 A71.55,71.55, 0.08223991435397279,1,1, -0.25131408912559927, 283.0119999879327" berti:cx="-0.25"  berti:cy="211.462" berti:r="71.55" berti:sa="4.712" berti:da="3.142"/><path berti:type="carc" d="M-0.2645728177243697,283.01199851595374 A71.55,71.55, 0.027419122548830915,1,1, -0.20628154924490216, 139.91201335641588" berti:cx="-0.25"  berti:cy="211.462" berti:r="71.55" berti:sa="1.571" berti:da="3.142"/></g></g>
</svg>
